<svg xmlns="http://www.w3.org/2000/svg" xmlns:xlink="http://www.w3.org/1999/xlink" width="300" zoomAndPan="magnify" viewBox="0 0 224.87999 74.999997" height="100" preserveAspectRatio="xMidYMid meet" version="1.0"><defs><g/><clipPath id="059a0838ee"><path d="M 0 0.0195312 L 224.761719 0.0195312 L 224.761719 74.980469 L 0 74.980469 Z M 0 0.0195312 " clip-rule="nonzero"/></clipPath><clipPath id="56909a0750"><path d="M 32.789062 1 L 89 1 L 89 73.488281 L 32.789062 73.488281 Z M 32.789062 1 " clip-rule="nonzero"/></clipPath><clipPath id="50fcd0d953"><path d="M 32.910156 1.863281 L 88.167969 1.863281 L 88.167969 73.488281 L 32.910156 73.488281 Z M 32.910156 1.863281 " clip-rule="nonzero"/></clipPath><clipPath id="4248d56adc"><path d="M 53.378906 44.824219 L 54.070312 41.488281 C 53.609375 41.121094 53.355469 40.648438 53.304688 40.0625 C 53.253906 39.480469 53.421875 38.96875 53.808594 38.527344 C 54.199219 38.089844 54.683594 37.859375 55.269531 37.839844 C 55.855469 37.820312 56.359375 38.011719 56.777344 38.425781 L 63.4375 33.1875 C 63.351562 33.027344 63.292969 32.855469 63.257812 32.679688 L 54.671875 32.410156 C 54.628906 33.066406 54.390625 33.636719 53.949219 34.125 C 53.507812 34.617188 52.960938 34.914062 52.3125 35.023438 L 53.09375 44.769531 C 53.1875 44.777344 53.28125 44.796875 53.375 44.824219 M 53.988281 25.644531 C 54.117188 25.664062 54.25 25.671875 54.382812 25.671875 C 55.015625 25.671875 55.574219 25.46875 56.058594 25.0625 C 56.542969 24.65625 56.84375 24.140625 56.953125 23.515625 L 62.847656 23.855469 C 62.957031 24.78125 63.472656 25.300781 64.398438 25.417969 L 64.625 30.59375 C 63.832031 30.773438 63.371094 31.261719 63.246094 32.066406 L 54.644531 31.796875 C 54.476562 30.738281 53.894531 30.007812 52.898438 29.609375 Z M 51.953125 24.027344 C 52.226562 24.714844 52.707031 25.199219 53.390625 25.480469 C 52.96875 26.976562 52.667969 28 52.230469 29.433594 C 52.105469 29.417969 52.679688 29.566406 51.847656 29.410156 C 49.859375 29.019531 47.378906 32.699219 50.523438 34.730469 C 50.183594 35.726562 49.707031 37.160156 49.324219 38.1875 C 49.214844 38.152344 49.101562 38.136719 48.988281 38.136719 L 48.953125 38.136719 C 47.773438 34.527344 46.605469 31.027344 45.363281 27.464844 C 46.070312 27.085938 46.421875 26.5 46.421875 25.699219 C 46.421875 25.628906 46.417969 25.558594 46.410156 25.488281 Z M 47.769531 17.457031 C 47.921875 17.804688 48.175781 18.042969 48.535156 18.167969 C 48.894531 18.292969 49.238281 18.265625 49.574219 18.089844 L 52.433594 21.324219 C 51.898438 21.925781 51.683594 22.625 51.796875 23.425781 L 46.257812 24.890625 C 46.066406 24.457031 45.757812 24.128906 45.335938 23.910156 C 44.914062 23.691406 44.46875 23.632812 44.003906 23.730469 C 43.539062 23.828125 43.15625 24.058594 42.855469 24.429688 C 42.558594 24.796875 42.40625 25.222656 42.40625 25.695312 C 42.40625 25.765625 42.410156 25.835938 42.417969 25.90625 L 38.789062 26.867188 C 38.734375 26.765625 38.671875 26.671875 38.59375 26.589844 L 43.894531 19.117188 C 43.976562 19.140625 44.058594 19.152344 44.144531 19.152344 C 44.6875 19.152344 44.992188 18.882812 45.058594 18.34375 Z M 53.800781 12.675781 C 53.34375 12.675781 52.984375 12.867188 52.726562 13.242188 C 52.46875 13.621094 52.417969 14.023438 52.585938 14.453125 C 52.75 14.878906 53.054688 15.144531 53.5 15.253906 C 53.945312 15.359375 54.335938 15.257812 54.679688 14.953125 L 58.921875 17.84375 C 58.710938 18.324219 58.722656 18.800781 58.953125 19.269531 L 56.277344 21.269531 C 55.835938 20.804688 55.292969 20.539062 54.65625 20.472656 C 54.015625 20.40625 53.429688 20.554688 52.902344 20.921875 L 50.039062 17.6875 C 50.433594 17.125 50.402344 16.585938 49.949219 16.074219 C 49.496094 15.558594 48.96875 15.464844 48.363281 15.785156 L 45.011719 11.992188 C 45.03125 11.917969 45.042969 11.839844 45.042969 11.761719 C 45.042969 11.660156 45.027344 11.558594 44.992188 11.464844 L 47.625 10.398438 C 47.996094 10.914062 48.480469 11.074219 49.085938 10.878906 C 49.6875 10.6875 49.988281 10.273438 49.992188 9.636719 C 49.988281 9.574219 49.984375 9.511719 49.976562 9.449219 L 52.535156 8.414062 C 52.738281 8.636719 52.984375 8.738281 53.285156 8.71875 C 53.585938 8.699219 53.820312 8.566406 53.988281 8.316406 L 57.789062 9.296875 C 57.789062 9.316406 57.789062 9.332031 57.789062 9.347656 C 57.789062 9.847656 57.996094 10.242188 58.410156 10.523438 C 58.820312 10.808594 59.261719 10.859375 59.730469 10.679688 C 60.195312 10.5 60.488281 10.167969 60.605469 9.679688 C 60.722656 9.191406 60.613281 8.761719 60.277344 8.390625 C 59.941406 8.019531 59.523438 7.867188 59.027344 7.933594 C 58.53125 8 58.171875 8.253906 57.945312 8.703125 L 54.140625 7.71875 C 54.089844 7.132812 53.773438 6.855469 53.183594 6.878906 C 52.597656 6.90625 52.304688 7.214844 52.304688 7.800781 L 52.304688 7.839844 L 49.746094 8.875 C 49.375 8.359375 48.886719 8.199219 48.285156 8.394531 C 47.679688 8.589844 47.378906 9.003906 47.378906 9.636719 C 47.378906 9.703125 47.382812 9.765625 47.390625 9.828125 L 44.582031 10.960938 C 44.121094 10.695312 43.726562 10.769531 43.398438 11.183594 C 43.070312 11.601562 43.085938 12 43.449219 12.386719 C 43.816406 12.773438 44.214844 12.8125 44.648438 12.507812 L 47.894531 16.1875 C 47.792969 16.335938 47.722656 16.496094 47.6875 16.671875 L 44.816406 17.613281 C 44.625 17.402344 44.390625 17.304688 44.105469 17.3125 C 43.824219 17.324219 43.59375 17.441406 43.417969 17.660156 L 41.261719 16.925781 C 41.261719 16.878906 41.269531 16.832031 41.269531 16.78125 C 41.269531 16.308594 41.078125 15.929688 40.6875 15.65625 C 40.300781 15.378906 39.878906 15.320312 39.429688 15.480469 C 38.980469 15.636719 38.691406 15.945312 38.5625 16.402344 C 38.429688 16.859375 38.515625 17.277344 38.8125 17.648438 C 39.113281 18.019531 39.5 18.1875 39.972656 18.160156 C 40.449219 18.128906 40.8125 17.914062 41.0625 17.507812 L 43.21875 18.246094 C 43.21875 18.300781 43.226562 18.351562 43.234375 18.40625 L 36.886719 22.121094 C 36.554688 21.765625 36.148438 21.625 35.667969 21.703125 C 35.1875 21.777344 34.84375 22.035156 34.636719 22.472656 C 34.429688 22.910156 34.445312 23.339844 34.691406 23.757812 C 34.933594 24.175781 35.300781 24.402344 35.785156 24.4375 C 36.269531 24.472656 36.660156 24.300781 36.960938 23.917969 C 37.261719 23.539062 37.339844 23.117188 37.195312 22.652344 L 43.066406 19.214844 L 38.097656 26.234375 C 37.714844 26.078125 37.335938 26.089844 36.960938 26.273438 C 36.589844 26.457031 36.347656 26.75 36.242188 27.152344 C 36.132812 27.554688 36.195312 27.929688 36.425781 28.277344 C 36.660156 28.621094 36.980469 28.824219 37.394531 28.875 C 37.804688 28.929688 38.167969 28.820312 38.480469 28.546875 C 38.796875 28.273438 38.953125 27.925781 38.953125 27.511719 C 38.953125 27.496094 38.953125 27.480469 38.953125 27.464844 L 42.582031 26.503906 C 42.808594 27.019531 43.183594 27.375 43.707031 27.574219 L 42.183594 34.734375 C 41.828125 34.734375 41.519531 34.855469 41.253906 35.089844 L 39.074219 33.496094 C 39.167969 33.277344 39.207031 33.054688 39.191406 32.816406 C 39.171875 32.582031 39.101562 32.363281 38.976562 32.164062 C 38.851562 31.960938 38.683594 31.804688 38.480469 31.683594 C 38.273438 31.566406 38.054688 31.503906 37.816406 31.496094 C 37.582031 31.488281 37.355469 31.535156 37.144531 31.636719 C 36.929688 31.742188 36.753906 31.886719 36.617188 32.078125 C 36.476562 32.269531 36.390625 32.480469 36.355469 32.714844 C 36.320312 32.949219 36.34375 33.179688 36.421875 33.402344 C 36.503906 33.625 36.628906 33.816406 36.804688 33.976562 C 36.976562 34.132812 37.179688 34.242188 37.410156 34.304688 C 37.636719 34.363281 37.867188 34.363281 38.097656 34.308594 C 38.328125 34.253906 38.53125 34.148438 38.710938 33.992188 L 40.886719 35.585938 C 40.738281 35.925781 40.722656 36.273438 40.84375 36.625 L 35.414062 39.949219 C 35.25 39.78125 35.054688 39.660156 34.828125 39.585938 C 34.605469 39.511719 34.375 39.496094 34.144531 39.535156 C 33.910156 39.574219 33.699219 39.667969 33.515625 39.8125 C 33.328125 39.957031 33.183594 40.136719 33.085938 40.351562 C 32.988281 40.566406 32.949219 40.792969 32.964844 41.027344 C 32.976562 41.265625 33.046875 41.484375 33.171875 41.683594 C 33.292969 41.886719 33.457031 42.046875 33.660156 42.167969 C 33.863281 42.289062 34.082031 42.355469 34.320312 42.363281 C 34.554688 42.375 34.78125 42.332031 34.992188 42.230469 C 35.207031 42.128906 35.386719 41.984375 35.527344 41.796875 C 35.667969 41.605469 35.757812 41.394531 35.792969 41.164062 C 35.832031 40.929688 35.8125 40.699219 35.734375 40.476562 L 41.167969 37.152344 C 41.449219 37.445312 41.789062 37.589844 42.195312 37.589844 C 42.363281 37.589844 42.523438 37.558594 42.679688 37.503906 L 43.730469 39.386719 C 43.558594 39.542969 43.429688 39.730469 43.347656 39.949219 C 43.265625 40.171875 43.242188 40.398438 43.273438 40.628906 C 43.304688 40.859375 43.386719 41.074219 43.523438 41.261719 C 43.660156 41.453125 43.832031 41.601562 44.042969 41.707031 C 44.25 41.8125 44.472656 41.863281 44.707031 41.855469 C 44.941406 41.851562 45.160156 41.792969 45.367188 41.675781 C 45.570312 41.5625 45.734375 41.40625 45.863281 41.210938 C 45.992188 41.015625 46.0625 40.800781 46.085938 40.566406 C 46.105469 40.332031 46.070312 40.105469 45.980469 39.890625 C 45.886719 39.675781 45.75 39.492188 45.570312 39.34375 C 45.386719 39.195312 45.183594 39.101562 44.953125 39.054688 C 44.722656 39.007812 44.496094 39.019531 44.269531 39.085938 L 43.199219 37.171875 C 43.554688 36.820312 43.6875 36.402344 43.597656 35.910156 C 43.511719 35.417969 43.238281 35.070312 42.785156 34.863281 L 44.308594 27.707031 C 44.347656 27.707031 44.382812 27.707031 44.417969 27.707031 C 44.542969 27.707031 44.667969 27.695312 44.789062 27.671875 L 46.171875 31.570312 L 48.371094 38.328125 C 48.015625 38.574219 47.855469 38.910156 47.898438 39.34375 C 47.9375 39.773438 48.15625 40.078125 48.554688 40.25 L 47.171875 43.9375 C 46.726562 43.855469 46.308594 43.933594 45.921875 44.171875 C 45.539062 44.410156 45.28125 44.746094 45.152344 45.183594 L 42.527344 44.902344 C 42.410156 44.265625 42.03125 43.964844 41.386719 43.996094 C 40.742188 44.027344 40.394531 44.363281 40.34375 45.007812 C 40.289062 45.648438 40.578125 46.039062 41.210938 46.171875 L 41.804688 54.164062 C 41.578125 54.230469 41.378906 54.347656 41.210938 54.515625 C 41.042969 54.679688 40.921875 54.875 40.851562 55.101562 C 40.78125 55.328125 40.765625 55.558594 40.808594 55.789062 C 40.851562 56.023438 40.945312 56.230469 41.09375 56.417969 C 41.238281 56.601562 41.421875 56.742188 41.636719 56.839844 C 41.855469 56.933594 42.082031 56.972656 42.316406 56.957031 C 42.554688 56.9375 42.773438 56.867188 42.972656 56.742188 C 43.171875 56.613281 43.332031 56.449219 43.449219 56.246094 C 43.566406 56.039062 43.632812 55.820312 43.640625 55.582031 C 43.648438 55.347656 43.601562 55.121094 43.496094 54.910156 C 43.394531 54.695312 43.246094 54.519531 43.058594 54.378906 C 42.867188 54.238281 42.652344 54.152344 42.417969 54.117188 L 41.828125 46.128906 C 42.128906 46.015625 42.339844 45.808594 42.460938 45.515625 L 45.089844 45.796875 C 45.109375 46.105469 45.203125 46.386719 45.375 46.644531 C 45.542969 46.902344 45.765625 47.101562 46.042969 47.246094 C 46.316406 47.386719 46.609375 47.449219 46.917969 47.4375 C 47.226562 47.425781 47.511719 47.339844 47.777344 47.175781 C 48.039062 47.015625 48.246094 46.800781 48.394531 46.527344 C 48.542969 46.257812 48.617188 45.96875 48.613281 45.660156 C 48.609375 45.351562 48.53125 45.0625 48.378906 44.792969 C 48.222656 44.527344 48.011719 44.3125 47.746094 44.15625 L 49.1875 40.324219 C 49.378906 40.292969 49.546875 40.210938 49.699219 40.085938 C 49.847656 39.964844 49.957031 39.808594 50.027344 39.628906 C 50.09375 39.445312 50.113281 39.257812 50.082031 39.066406 C 50.050781 38.871094 49.976562 38.699219 49.855469 38.546875 L 51.152344 34.972656 C 51.332031 35.019531 51.515625 35.046875 51.699219 35.058594 L 52.480469 44.800781 C 51.703125 44.984375 51.125 45.746094 51.125 46.519531 C 51.125 47.296875 51.539062 47.839844 52.144531 48.121094 L 48.261719 60.097656 L 48.203125 60.097656 C 47.703125 60.097656 47.3125 60.300781 47.027344 60.714844 C 46.746094 61.125 46.695312 61.566406 46.871094 62.03125 C 47.050781 62.496094 47.382812 62.789062 47.867188 62.90625 C 48.355469 63.023438 48.78125 62.914062 49.15625 62.582031 C 49.527344 62.25 49.679688 61.835938 49.617188 61.339844 C 49.554688 60.84375 49.300781 60.484375 48.855469 60.253906 L 52.742188 48.277344 C 52.789062 48.28125 52.375 48.285156 52.886719 48.285156 C 53.398438 48.285156 54.652344 47.300781 54.652344 46.519531 C 54.652344 45.742188 54.367188 45.417969 53.929688 45.097656 L 54.605469 41.792969 C 55.488281 42.136719 56.246094 41.953125 56.875 41.242188 C 57.503906 40.53125 57.59375 39.757812 57.148438 38.917969 L 63.820312 33.671875 C 63.835938 33.691406 63.855469 33.707031 63.875 33.722656 L 60.910156 38.953125 C 60.765625 38.90625 60.617188 38.886719 60.464844 38.886719 C 59.789062 38.886719 59.328125 39.203125 59.089844 39.835938 C 58.847656 40.472656 58.980469 41.011719 59.488281 41.464844 L 56.972656 48.808594 C 56.832031 48.765625 57.015625 48.742188 56.53125 48.742188 C 56.046875 48.742188 55.054688 49.402344 55.054688 50.21875 C 55.054688 50.625 55.199219 50.972656 55.488281 51.261719 C 55.773438 51.546875 56.121094 51.691406 56.53125 51.691406 C 57.34375 51.691406 58.003906 50.84375 58.003906 50.21875 C 58.003906 49.589844 57.8125 49.382812 57.507812 49.113281 L 60.023438 41.769531 L 60.101562 41.789062 L 61.578125 45.996094 C 61.015625 46.125 60.738281 46.476562 60.753906 47.050781 C 60.753906 47.605469 61.242188 48.140625 61.84375 48.140625 C 62.445312 48.140625 62.933594 47.59375 62.933594 47.050781 C 62.933594 46.511719 62.625 46.167969 62.191406 46.019531 L 60.71875 41.8125 C 61.519531 41.675781 61.929688 41.195312 61.941406 40.382812 L 68.679688 39.035156 C 68.855469 39.363281 69.125 39.554688 69.496094 39.605469 C 69.867188 39.652344 70.179688 39.542969 70.433594 39.269531 C 70.691406 38.996094 70.78125 38.679688 70.707031 38.3125 C 70.632812 37.945312 70.429688 37.6875 70.085938 37.535156 C 69.746094 37.378906 69.414062 37.398438 69.09375 37.585938 C 68.769531 37.773438 68.59375 38.054688 68.558594 38.425781 L 61.816406 39.773438 C 61.730469 39.574219 61.601562 39.402344 61.441406 39.257812 L 64.40625 34.027344 C 64.90625 34.203125 65.390625 34.164062 65.855469 33.914062 C 66.324219 33.660156 66.617188 33.273438 66.742188 32.757812 C 66.867188 32.242188 66.777344 31.765625 66.476562 31.328125 C 66.175781 30.890625 65.761719 30.636719 65.234375 30.566406 L 65.003906 25.390625 C 65.304688 25.324219 65.570312 25.191406 65.796875 24.984375 L 70.984375 29.15625 C 70.839844 29.417969 70.765625 29.699219 70.761719 30 C 70.757812 30.304688 70.828125 30.585938 70.96875 30.855469 C 71.105469 31.121094 71.300781 31.339844 71.550781 31.507812 C 71.800781 31.675781 72.078125 31.773438 72.378906 31.800781 C 72.675781 31.832031 72.964844 31.789062 73.242188 31.671875 C 73.523438 31.554688 73.753906 31.378906 73.945312 31.144531 C 74.132812 30.910156 74.253906 30.644531 74.3125 30.347656 C 74.367188 30.050781 74.347656 29.761719 74.253906 29.472656 C 74.164062 29.1875 74.007812 28.9375 73.792969 28.730469 C 73.574219 28.519531 73.320312 28.375 73.03125 28.296875 C 72.738281 28.214844 72.445312 28.207031 72.152344 28.277344 C 71.859375 28.34375 71.597656 28.476562 71.371094 28.675781 L 66.195312 24.507812 C 66.457031 24.03125 66.492188 23.539062 66.308594 23.03125 C 66.121094 22.519531 65.777344 22.167969 65.269531 21.972656 C 64.761719 21.777344 64.269531 21.808594 63.792969 22.0625 C 63.3125 22.316406 63.011719 22.707031 62.886719 23.234375 L 56.988281 22.898438 C 56.964844 22.488281 56.851562 22.109375 56.648438 21.753906 L 59.324219 19.757812 C 59.535156 19.953125 59.78125 20.085938 60.058594 20.160156 C 60.339844 20.230469 60.617188 20.226562 60.894531 20.15625 C 61.175781 20.085938 61.417969 19.949219 61.628906 19.753906 C 61.839844 19.558594 61.988281 19.324219 62.078125 19.050781 L 69.703125 20.105469 C 69.75 20.558594 69.976562 20.894531 70.375 21.117188 C 70.777344 21.335938 71.179688 21.339844 71.589844 21.136719 C 71.996094 20.929688 72.230469 20.601562 72.292969 20.148438 C 72.355469 19.695312 72.21875 19.316406 71.878906 19.007812 C 71.542969 18.699219 71.152344 18.597656 70.707031 18.699219 C 70.261719 18.804688 69.957031 19.070312 69.789062 19.492188 L 62.164062 18.445312 C 62.152344 18.210938 62.097656 17.988281 61.992188 17.777344 L 65.730469 14.988281 C 66.082031 15.277344 66.476562 15.359375 66.914062 15.234375 C 67.351562 15.109375 67.644531 14.832031 67.792969 14.398438 C 67.9375 13.96875 67.875 13.570312 67.601562 13.203125 C 67.328125 12.835938 66.964844 12.664062 66.507812 12.679688 C 66.050781 12.699219 65.703125 12.898438 65.457031 13.285156 C 65.214844 13.671875 65.179688 14.074219 65.359375 14.492188 L 61.621094 17.28125 C 61.285156 16.972656 60.890625 16.820312 60.4375 16.832031 C 59.980469 16.839844 59.59375 17.007812 59.269531 17.332031 L 55.027344 14.441406 C 55.183594 14.015625 55.136719 13.613281 54.875 13.238281 C 54.617188 12.863281 54.257812 12.675781 53.804688 12.675781 Z M 77.550781 25.78125 C 78.976562 49.773438 51.148438 45.195312 50.683594 73.480469 C 54.402344 67.507812 58.359375 65.128906 62.566406 66.339844 C 68.597656 70.351562 72.382812 70.398438 73.921875 66.480469 C 73.679688 64.90625 74.074219 63.820312 75.101562 63.226562 C 76.9375 63.089844 77.632812 62.179688 77.1875 60.5 C 78.75 60.886719 79.613281 60.484375 79.78125 59.292969 C 79.175781 57.109375 80.3125 55.976562 83.191406 55.902344 C 85.238281 55.730469 86.167969 54.988281 85.988281 53.667969 C 85.257812 50.019531 84.753906 47.433594 84.480469 45.910156 C 83.8125 43.582031 84.183594 41.359375 85.597656 39.246094 C 90.808594 27.554688 87.941406 17.382812 76.996094 8.726562 C 61.945312 -1.46875 48.140625 0.335938 39.632812 9.988281 C 41.238281 8.574219 43.007812 7.40625 44.941406 6.488281 C 46.875 5.570312 48.898438 4.9375 51.011719 4.589844 C 53.125 4.242188 55.242188 4.191406 57.371094 4.4375 C 59.496094 4.683594 61.546875 5.21875 63.523438 6.039062 C 65.5 6.863281 67.324219 7.941406 68.996094 9.277344 C 70.667969 10.613281 72.125 12.15625 73.367188 13.898438 C 74.605469 15.644531 75.582031 17.527344 76.292969 19.546875 C 77.003906 21.566406 77.421875 23.644531 77.550781 25.78125 Z M 77.550781 25.78125 " clip-rule="evenodd"/></clipPath><clipPath id="2ec60f17a5"><path d="M 0.273438 2 L 7 2 L 7 9 L 0.273438 9 Z M 0.273438 2 " clip-rule="nonzero"/></clipPath><clipPath id="999348bd0b"><path d="M 111 2 L 116.851562 2 L 116.851562 9 L 111 9 Z M 111 2 " clip-rule="nonzero"/></clipPath><clipPath id="e13edf29c0"><rect x="0" width="117" y="0" height="11"/></clipPath></defs><g clip-path="url(#059a0838ee)"><path fill="#ffffff" d="M 0 0.0195312 L 224.878906 0.0195312 L 224.878906 74.980469 L 0 74.980469 Z M 0 0.0195312 " fill-opacity="1" fill-rule="nonzero"/><path fill="#ffffff" d="M 0 0.0195312 L 224.878906 0.0195312 L 224.878906 74.980469 L 0 74.980469 Z M 0 0.0195312 " fill-opacity="1" fill-rule="nonzero"/></g><g clip-path="url(#56909a0750)"><path fill="#0a2463" d="M 53.378906 44.824219 L 54.070312 41.488281 C 53.851562 41.3125 53.675781 41.101562 53.542969 40.855469 C 53.410156 40.605469 53.328125 40.34375 53.304688 40.0625 C 53.28125 39.785156 53.3125 39.511719 53.398438 39.246094 C 53.488281 38.976562 53.625 38.738281 53.808594 38.527344 C 53.996094 38.320312 54.214844 38.152344 54.46875 38.035156 C 54.722656 37.914062 54.992188 37.847656 55.269531 37.839844 C 55.550781 37.828125 55.824219 37.875 56.085938 37.976562 C 56.347656 38.078125 56.578125 38.226562 56.777344 38.425781 L 63.4375 33.1875 C 63.351562 33.027344 63.292969 32.855469 63.257812 32.679688 L 54.671875 32.410156 C 54.652344 32.726562 54.578125 33.035156 54.457031 33.328125 C 54.332031 33.625 54.164062 33.890625 53.949219 34.125 C 53.734375 34.363281 53.488281 34.558594 53.207031 34.710938 C 52.925781 34.867188 52.628906 34.96875 52.3125 35.023438 L 53.09375 44.769531 C 53.1875 44.777344 53.28125 44.796875 53.375 44.824219 M 53.988281 25.644531 C 54.117188 25.664062 54.25 25.671875 54.382812 25.671875 C 54.6875 25.671875 54.984375 25.621094 55.273438 25.515625 C 55.5625 25.410156 55.824219 25.261719 56.058594 25.0625 C 56.292969 24.867188 56.488281 24.632812 56.640625 24.367188 C 56.796875 24.101562 56.898438 23.820312 56.953125 23.515625 L 62.847656 23.855469 C 62.894531 24.261719 63.0625 24.613281 63.351562 24.902344 C 63.640625 25.195312 63.988281 25.367188 64.398438 25.417969 L 64.625 30.59375 C 64.265625 30.675781 63.960938 30.847656 63.710938 31.117188 C 63.457031 31.386719 63.304688 31.703125 63.246094 32.066406 L 54.644531 31.796875 C 54.566406 31.304688 54.371094 30.863281 54.058594 30.472656 C 53.75 30.082031 53.359375 29.792969 52.898438 29.609375 Z M 51.953125 24.027344 C 52.226562 24.714844 52.707031 25.199219 53.390625 25.480469 C 52.96875 26.976562 52.667969 28 52.230469 29.433594 C 52.105469 29.417969 52.679688 29.566406 51.847656 29.410156 C 49.859375 29.019531 47.378906 32.699219 50.523438 34.730469 C 50.183594 35.726562 49.707031 37.160156 49.324219 38.1875 C 49.214844 38.152344 49.101562 38.136719 48.988281 38.136719 L 48.953125 38.136719 C 47.773438 34.527344 46.605469 31.027344 45.363281 27.464844 C 45.6875 27.292969 45.945312 27.046875 46.136719 26.726562 C 46.328125 26.410156 46.421875 26.066406 46.421875 25.699219 C 46.421875 25.628906 46.417969 25.558594 46.410156 25.488281 Z M 47.769531 17.457031 C 47.84375 17.625 47.945312 17.769531 48.078125 17.890625 C 48.210938 18.015625 48.363281 18.105469 48.535156 18.167969 C 48.707031 18.226562 48.882812 18.25 49.0625 18.238281 C 49.242188 18.222656 49.414062 18.175781 49.574219 18.089844 L 52.433594 21.324219 C 51.898438 21.925781 51.683594 22.625 51.796875 23.425781 L 46.257812 24.890625 C 46.164062 24.679688 46.039062 24.492188 45.882812 24.324219 C 45.722656 24.152344 45.542969 24.015625 45.335938 23.910156 C 45.132812 23.804688 44.914062 23.738281 44.6875 23.707031 C 44.457031 23.675781 44.230469 23.683594 44.003906 23.730469 C 43.777344 23.777344 43.566406 23.859375 43.371094 23.980469 C 43.171875 24.101562 43.003906 24.25 42.855469 24.429688 C 42.710938 24.609375 42.601562 24.808594 42.523438 25.023438 C 42.445312 25.242188 42.40625 25.464844 42.40625 25.695312 C 42.40625 25.765625 42.410156 25.835938 42.417969 25.90625 L 38.789062 26.867188 C 38.734375 26.765625 38.671875 26.671875 38.59375 26.589844 L 43.894531 19.117188 C 43.976562 19.140625 44.058594 19.152344 44.144531 19.152344 C 44.378906 19.152344 44.582031 19.074219 44.753906 18.921875 C 44.929688 18.765625 45.03125 18.574219 45.058594 18.34375 Z M 53.800781 12.675781 C 53.585938 12.675781 53.382812 12.726562 53.195312 12.828125 C 53.003906 12.925781 52.847656 13.066406 52.726562 13.242188 C 52.605469 13.421875 52.53125 13.617188 52.507812 13.828125 C 52.480469 14.042969 52.507812 14.25 52.585938 14.453125 C 52.660156 14.652344 52.78125 14.824219 52.941406 14.964844 C 53.105469 15.105469 53.289062 15.203125 53.5 15.253906 C 53.707031 15.300781 53.917969 15.300781 54.125 15.246094 C 54.335938 15.195312 54.519531 15.097656 54.679688 14.953125 L 58.921875 17.84375 C 58.710938 18.324219 58.722656 18.800781 58.953125 19.269531 L 56.277344 21.269531 C 56.066406 21.042969 55.816406 20.863281 55.539062 20.726562 C 55.257812 20.589844 54.964844 20.503906 54.65625 20.472656 C 54.34375 20.441406 54.039062 20.460938 53.738281 20.539062 C 53.4375 20.617188 53.15625 20.742188 52.902344 20.921875 L 50.039062 17.6875 C 50.214844 17.4375 50.292969 17.164062 50.273438 16.863281 C 50.257812 16.5625 50.148438 16.300781 49.949219 16.074219 C 49.75 15.847656 49.503906 15.707031 49.207031 15.652344 C 48.910156 15.597656 48.628906 15.644531 48.363281 15.785156 L 45.011719 11.992188 C 45.03125 11.917969 45.042969 11.839844 45.042969 11.761719 C 45.042969 11.660156 45.027344 11.558594 44.992188 11.464844 L 47.625 10.398438 C 47.789062 10.628906 48.007812 10.789062 48.277344 10.878906 C 48.546875 10.964844 48.816406 10.96875 49.085938 10.878906 C 49.355469 10.792969 49.574219 10.636719 49.738281 10.40625 C 49.90625 10.175781 49.988281 9.921875 49.992188 9.636719 C 49.988281 9.574219 49.984375 9.511719 49.976562 9.449219 L 52.535156 8.414062 C 52.632812 8.519531 52.746094 8.597656 52.875 8.652344 C 53.007812 8.707031 53.144531 8.730469 53.285156 8.71875 C 53.425781 8.710938 53.558594 8.671875 53.683594 8.597656 C 53.804688 8.527344 53.90625 8.433594 53.988281 8.316406 L 57.789062 9.296875 C 57.789062 9.316406 57.789062 9.332031 57.789062 9.347656 C 57.789062 9.582031 57.84375 9.804688 57.953125 10.011719 C 58.0625 10.21875 58.214844 10.390625 58.410156 10.523438 C 58.601562 10.65625 58.816406 10.738281 59.050781 10.765625 C 59.28125 10.792969 59.507812 10.765625 59.730469 10.679688 C 59.949219 10.59375 60.136719 10.464844 60.289062 10.289062 C 60.445312 10.109375 60.550781 9.910156 60.605469 9.679688 C 60.660156 9.449219 60.65625 9.222656 60.601562 8.996094 C 60.542969 8.765625 60.433594 8.566406 60.277344 8.390625 C 60.117188 8.21875 59.929688 8.089844 59.707031 8.007812 C 59.488281 7.925781 59.261719 7.902344 59.027344 7.933594 C 58.796875 7.964844 58.582031 8.046875 58.390625 8.183594 C 58.199219 8.320312 58.050781 8.492188 57.945312 8.703125 L 54.140625 7.71875 C 54.121094 7.476562 54.015625 7.269531 53.832031 7.109375 C 53.648438 6.945312 53.429688 6.871094 53.183594 6.878906 C 52.9375 6.890625 52.730469 6.988281 52.558594 7.164062 C 52.390625 7.34375 52.304688 7.554688 52.304688 7.800781 L 52.304688 7.839844 L 49.746094 8.875 C 49.582031 8.644531 49.363281 8.484375 49.09375 8.398438 C 48.824219 8.308594 48.554688 8.308594 48.285156 8.394531 C 48.015625 8.480469 47.796875 8.640625 47.628906 8.867188 C 47.460938 9.097656 47.378906 9.355469 47.378906 9.636719 C 47.378906 9.703125 47.382812 9.765625 47.390625 9.828125 L 44.582031 10.960938 C 44.382812 10.84375 44.171875 10.808594 43.949219 10.851562 C 43.722656 10.894531 43.539062 11.003906 43.398438 11.183594 C 43.257812 11.363281 43.191406 11.566406 43.199219 11.796875 C 43.210938 12.023438 43.292969 12.21875 43.449219 12.386719 C 43.609375 12.554688 43.800781 12.648438 44.027344 12.671875 C 44.253906 12.695312 44.460938 12.640625 44.648438 12.507812 L 47.894531 16.1875 C 47.792969 16.335938 47.722656 16.496094 47.6875 16.671875 L 44.816406 17.613281 C 44.726562 17.511719 44.621094 17.4375 44.496094 17.386719 C 44.371094 17.332031 44.242188 17.308594 44.105469 17.3125 C 43.972656 17.320312 43.84375 17.351562 43.726562 17.414062 C 43.605469 17.472656 43.503906 17.554688 43.417969 17.660156 L 41.261719 16.925781 C 41.261719 16.878906 41.269531 16.832031 41.269531 16.78125 C 41.269531 16.558594 41.21875 16.347656 41.117188 16.148438 C 41.011719 15.949219 40.871094 15.785156 40.6875 15.65625 C 40.503906 15.527344 40.304688 15.445312 40.082031 15.414062 C 39.859375 15.382812 39.640625 15.40625 39.429688 15.480469 C 39.21875 15.554688 39.039062 15.671875 38.882812 15.835938 C 38.730469 16 38.621094 16.1875 38.5625 16.402344 C 38.5 16.617188 38.492188 16.835938 38.535156 17.054688 C 38.582031 17.273438 38.671875 17.472656 38.8125 17.648438 C 38.953125 17.820312 39.125 17.953125 39.332031 18.042969 C 39.535156 18.136719 39.75 18.171875 39.972656 18.160156 C 40.199219 18.144531 40.40625 18.082031 40.597656 17.96875 C 40.789062 17.851562 40.945312 17.699219 41.0625 17.507812 L 43.21875 18.246094 C 43.21875 18.300781 43.226562 18.351562 43.234375 18.40625 L 36.886719 22.121094 C 36.730469 21.953125 36.542969 21.835938 36.328125 21.761719 C 36.113281 21.6875 35.894531 21.667969 35.667969 21.703125 C 35.441406 21.738281 35.238281 21.824219 35.058594 21.957031 C 34.875 22.09375 34.734375 22.265625 34.636719 22.472656 C 34.539062 22.675781 34.496094 22.894531 34.503906 23.121094 C 34.511719 23.347656 34.574219 23.5625 34.691406 23.757812 C 34.804688 23.953125 34.960938 24.113281 35.152344 24.234375 C 35.347656 24.355469 35.554688 24.421875 35.785156 24.4375 C 36.011719 24.453125 36.230469 24.417969 36.4375 24.324219 C 36.644531 24.230469 36.820312 24.097656 36.960938 23.917969 C 37.101562 23.738281 37.195312 23.539062 37.234375 23.316406 C 37.277344 23.089844 37.265625 22.871094 37.195312 22.652344 L 43.066406 19.214844 L 38.097656 26.234375 C 37.914062 26.160156 37.722656 26.125 37.527344 26.132812 C 37.328125 26.136719 37.140625 26.1875 36.960938 26.273438 C 36.785156 26.363281 36.632812 26.484375 36.507812 26.636719 C 36.378906 26.789062 36.292969 26.960938 36.242188 27.152344 C 36.191406 27.347656 36.179688 27.539062 36.214844 27.734375 C 36.246094 27.929688 36.316406 28.113281 36.425781 28.277344 C 36.539062 28.441406 36.675781 28.578125 36.84375 28.679688 C 37.015625 28.785156 37.195312 28.851562 37.394531 28.875 C 37.589844 28.902344 37.785156 28.886719 37.972656 28.828125 C 38.164062 28.769531 38.332031 28.675781 38.480469 28.546875 C 38.632812 28.414062 38.746094 28.257812 38.828125 28.078125 C 38.910156 27.898438 38.953125 27.707031 38.953125 27.511719 C 38.953125 27.496094 38.953125 27.480469 38.953125 27.464844 L 42.582031 26.503906 C 42.808594 27.019531 43.183594 27.375 43.707031 27.574219 L 42.183594 34.734375 C 41.828125 34.734375 41.519531 34.855469 41.253906 35.089844 L 39.074219 33.496094 C 39.121094 33.390625 39.152344 33.277344 39.171875 33.164062 C 39.195312 33.046875 39.199219 32.933594 39.191406 32.816406 C 39.183594 32.699219 39.160156 32.585938 39.125 32.476562 C 39.085938 32.367188 39.039062 32.261719 38.976562 32.164062 C 38.914062 32.0625 38.839844 31.972656 38.757812 31.894531 C 38.671875 31.8125 38.582031 31.742188 38.480469 31.683594 C 38.378906 31.625 38.273438 31.582031 38.160156 31.550781 C 38.046875 31.515625 37.933594 31.5 37.816406 31.496094 C 37.703125 31.492188 37.585938 31.5 37.472656 31.523438 C 37.359375 31.550781 37.25 31.585938 37.144531 31.636719 C 37.039062 31.6875 36.941406 31.75 36.851562 31.824219 C 36.761719 31.898438 36.683594 31.984375 36.617188 32.078125 C 36.546875 32.171875 36.488281 32.273438 36.445312 32.382812 C 36.402344 32.488281 36.371094 32.601562 36.355469 32.714844 C 36.339844 32.832031 36.335938 32.945312 36.347656 33.0625 C 36.359375 33.179688 36.382812 33.292969 36.421875 33.402344 C 36.460938 33.511719 36.515625 33.613281 36.578125 33.710938 C 36.644531 33.808594 36.71875 33.894531 36.804688 33.976562 C 36.890625 34.054688 36.984375 34.121094 37.085938 34.175781 C 37.1875 34.230469 37.296875 34.273438 37.410156 34.304688 C 37.523438 34.332031 37.636719 34.347656 37.753906 34.347656 C 37.871094 34.351562 37.984375 34.335938 38.097656 34.308594 C 38.210938 34.28125 38.320312 34.242188 38.421875 34.1875 C 38.527344 34.136719 38.621094 34.070312 38.710938 33.992188 L 40.886719 35.585938 C 40.738281 35.925781 40.722656 36.273438 40.84375 36.625 L 35.414062 39.949219 C 35.332031 39.867188 35.242188 39.792969 35.144531 39.734375 C 35.042969 39.671875 34.941406 39.621094 34.828125 39.585938 C 34.71875 39.550781 34.605469 39.527344 34.488281 39.519531 C 34.375 39.511719 34.257812 39.515625 34.144531 39.535156 C 34.027344 39.554688 33.917969 39.589844 33.8125 39.636719 C 33.707031 39.683594 33.605469 39.742188 33.515625 39.8125 C 33.421875 39.882812 33.339844 39.964844 33.265625 40.054688 C 33.195312 40.148438 33.136719 40.246094 33.085938 40.351562 C 33.039062 40.457031 33.003906 40.570312 32.984375 40.683594 C 32.960938 40.796875 32.957031 40.914062 32.964844 41.027344 C 32.96875 41.144531 32.992188 41.257812 33.027344 41.371094 C 33.0625 41.480469 33.109375 41.585938 33.171875 41.683594 C 33.230469 41.785156 33.300781 41.875 33.386719 41.957031 C 33.46875 42.039062 33.558594 42.109375 33.660156 42.167969 C 33.761719 42.226562 33.867188 42.273438 33.976562 42.308594 C 34.089844 42.339844 34.203125 42.359375 34.320312 42.363281 C 34.433594 42.371094 34.550781 42.363281 34.664062 42.339844 C 34.777344 42.316406 34.886719 42.28125 34.992188 42.230469 C 35.097656 42.179688 35.195312 42.121094 35.285156 42.046875 C 35.378906 41.972656 35.457031 41.890625 35.527344 41.796875 C 35.597656 41.703125 35.65625 41.601562 35.699219 41.496094 C 35.746094 41.386719 35.777344 41.277344 35.792969 41.164062 C 35.8125 41.046875 35.816406 40.933594 35.808594 40.816406 C 35.796875 40.699219 35.773438 40.585938 35.734375 40.476562 L 41.167969 37.152344 C 41.449219 37.445312 41.789062 37.589844 42.195312 37.589844 C 42.363281 37.589844 42.523438 37.558594 42.679688 37.503906 L 43.730469 39.386719 C 43.644531 39.464844 43.570312 39.550781 43.503906 39.644531 C 43.441406 39.742188 43.386719 39.84375 43.347656 39.949219 C 43.308594 40.058594 43.28125 40.171875 43.269531 40.285156 C 43.253906 40.398438 43.257812 40.515625 43.273438 40.628906 C 43.289062 40.742188 43.316406 40.855469 43.359375 40.960938 C 43.402344 41.070312 43.457031 41.167969 43.523438 41.261719 C 43.589844 41.359375 43.667969 41.441406 43.753906 41.515625 C 43.84375 41.59375 43.9375 41.65625 44.042969 41.707031 C 44.144531 41.757812 44.253906 41.796875 44.363281 41.824219 C 44.476562 41.847656 44.589844 41.859375 44.707031 41.855469 C 44.824219 41.855469 44.9375 41.835938 45.046875 41.808594 C 45.160156 41.777344 45.265625 41.734375 45.367188 41.675781 C 45.464844 41.621094 45.558594 41.554688 45.644531 41.472656 C 45.726562 41.394531 45.800781 41.308594 45.863281 41.210938 C 45.925781 41.113281 45.976562 41.011719 46.011719 40.902344 C 46.050781 40.792969 46.074219 40.679688 46.085938 40.566406 C 46.09375 40.449219 46.089844 40.335938 46.074219 40.222656 C 46.054688 40.109375 46.023438 39.996094 45.980469 39.890625 C 45.933594 39.785156 45.875 39.6875 45.808594 39.59375 C 45.738281 39.5 45.660156 39.417969 45.570312 39.34375 C 45.480469 39.273438 45.382812 39.210938 45.277344 39.160156 C 45.175781 39.113281 45.066406 39.078125 44.953125 39.054688 C 44.839844 39.03125 44.726562 39.023438 44.609375 39.027344 C 44.496094 39.035156 44.382812 39.050781 44.269531 39.085938 L 43.199219 37.171875 C 43.367188 37.007812 43.484375 36.8125 43.554688 36.589844 C 43.625 36.367188 43.640625 36.140625 43.597656 35.910156 C 43.558594 35.679688 43.464844 35.472656 43.320312 35.285156 C 43.175781 35.101562 43 34.960938 42.785156 34.863281 L 44.308594 27.707031 C 44.347656 27.707031 44.382812 27.707031 44.417969 27.707031 C 44.542969 27.707031 44.667969 27.695312 44.789062 27.671875 L 46.171875 31.570312 L 48.371094 38.328125 C 48.015625 38.574219 47.855469 38.910156 47.898438 39.34375 C 47.9375 39.773438 48.15625 40.078125 48.554688 40.25 L 47.171875 43.9375 C 46.957031 43.898438 46.742188 43.898438 46.523438 43.941406 C 46.308594 43.980469 46.109375 44.058594 45.921875 44.171875 C 45.738281 44.289062 45.578125 44.433594 45.445312 44.605469 C 45.3125 44.78125 45.214844 44.972656 45.152344 45.183594 L 42.527344 44.902344 C 42.476562 44.628906 42.34375 44.40625 42.128906 44.234375 C 41.910156 44.0625 41.664062 43.980469 41.386719 43.996094 C 41.113281 44.007812 40.875 44.109375 40.675781 44.304688 C 40.476562 44.496094 40.367188 44.730469 40.34375 45.007812 C 40.320312 45.28125 40.390625 45.53125 40.558594 45.753906 C 40.722656 45.976562 40.941406 46.113281 41.210938 46.171875 L 41.804688 54.164062 C 41.691406 54.195312 41.585938 54.242188 41.484375 54.300781 C 41.386719 54.363281 41.292969 54.433594 41.210938 54.515625 C 41.128906 54.597656 41.054688 54.6875 40.996094 54.785156 C 40.933594 54.886719 40.886719 54.992188 40.851562 55.101562 C 40.816406 55.214844 40.792969 55.328125 40.789062 55.445312 C 40.78125 55.558594 40.789062 55.675781 40.808594 55.789062 C 40.828125 55.90625 40.863281 56.015625 40.914062 56.121094 C 40.960938 56.226562 41.019531 56.324219 41.09375 56.417969 C 41.164062 56.507812 41.246094 56.589844 41.339844 56.660156 C 41.433594 56.734375 41.53125 56.792969 41.636719 56.839844 C 41.746094 56.886719 41.855469 56.917969 41.972656 56.9375 C 42.085938 56.957031 42.203125 56.964844 42.316406 56.957031 C 42.433594 56.945312 42.546875 56.925781 42.65625 56.886719 C 42.769531 56.851562 42.875 56.804688 42.972656 56.742188 C 43.070312 56.679688 43.160156 56.605469 43.242188 56.523438 C 43.324219 56.4375 43.390625 56.34375 43.449219 56.246094 C 43.507812 56.144531 43.554688 56.039062 43.585938 55.925781 C 43.617188 55.8125 43.636719 55.699219 43.640625 55.582031 C 43.644531 55.464844 43.632812 55.351562 43.609375 55.238281 C 43.585938 55.121094 43.546875 55.011719 43.496094 54.910156 C 43.445312 54.804688 43.382812 54.707031 43.308594 54.617188 C 43.234375 54.527344 43.152344 54.449219 43.058594 54.378906 C 42.960938 54.308594 42.863281 54.253906 42.753906 54.210938 C 42.644531 54.164062 42.535156 54.136719 42.417969 54.117188 L 41.828125 46.128906 C 42.128906 46.015625 42.339844 45.808594 42.460938 45.515625 L 45.089844 45.796875 C 45.097656 45.945312 45.128906 46.09375 45.175781 46.238281 C 45.226562 46.382812 45.292969 46.519531 45.375 46.644531 C 45.457031 46.773438 45.558594 46.886719 45.667969 46.988281 C 45.78125 47.089844 45.90625 47.175781 46.042969 47.246094 C 46.175781 47.3125 46.320312 47.367188 46.46875 47.398438 C 46.617188 47.429688 46.765625 47.445312 46.917969 47.4375 C 47.070312 47.433594 47.21875 47.40625 47.363281 47.363281 C 47.507812 47.320312 47.644531 47.257812 47.777344 47.175781 C 47.90625 47.097656 48.023438 47.003906 48.125 46.894531 C 48.230469 46.78125 48.320312 46.660156 48.394531 46.527344 C 48.46875 46.394531 48.523438 46.253906 48.558594 46.109375 C 48.597656 45.960938 48.617188 45.8125 48.613281 45.660156 C 48.613281 45.507812 48.59375 45.359375 48.550781 45.210938 C 48.511719 45.0625 48.453125 44.925781 48.378906 44.792969 C 48.300781 44.660156 48.210938 44.542969 48.105469 44.433594 C 47.996094 44.324219 47.878906 44.234375 47.746094 44.15625 L 49.1875 40.324219 C 49.28125 40.308594 49.371094 40.28125 49.457031 40.238281 C 49.542969 40.199219 49.625 40.148438 49.699219 40.085938 C 49.773438 40.027344 49.835938 39.957031 49.890625 39.878906 C 49.949219 39.800781 49.992188 39.714844 50.027344 39.628906 C 50.058594 39.539062 50.082031 39.445312 50.089844 39.351562 C 50.101562 39.253906 50.097656 39.160156 50.082031 39.066406 C 50.066406 38.96875 50.039062 38.878906 50 38.792969 C 49.964844 38.703125 49.914062 38.625 49.855469 38.546875 L 51.152344 34.972656 C 51.332031 35.019531 51.515625 35.046875 51.699219 35.058594 L 52.480469 44.800781 C 51.703125 44.984375 51.125 45.746094 51.125 46.519531 C 51.125 47.296875 51.539062 47.839844 52.144531 48.121094 L 48.261719 60.097656 L 48.203125 60.097656 C 47.96875 60.097656 47.746094 60.152344 47.539062 60.261719 C 47.332031 60.371094 47.160156 60.519531 47.027344 60.714844 C 46.894531 60.90625 46.816406 61.121094 46.789062 61.351562 C 46.761719 61.585938 46.789062 61.8125 46.871094 62.03125 C 46.957031 62.25 47.085938 62.4375 47.261719 62.589844 C 47.4375 62.746094 47.640625 62.851562 47.867188 62.90625 C 48.097656 62.960938 48.324219 62.960938 48.550781 62.902344 C 48.777344 62.847656 48.980469 62.738281 49.15625 62.582031 C 49.328125 62.425781 49.457031 62.238281 49.539062 62.019531 C 49.621094 61.796875 49.648438 61.574219 49.617188 61.339844 C 49.585938 61.109375 49.503906 60.894531 49.371094 60.703125 C 49.238281 60.511719 49.066406 60.363281 48.855469 60.253906 L 52.742188 48.277344 C 52.789062 48.28125 52.375 48.285156 52.886719 48.285156 C 53.398438 48.285156 54.652344 47.300781 54.652344 46.519531 C 54.652344 45.742188 54.367188 45.417969 53.929688 45.097656 L 54.605469 41.792969 C 55.003906 41.949219 55.410156 41.976562 55.828125 41.875 C 56.242188 41.773438 56.59375 41.5625 56.875 41.242188 C 57.160156 40.921875 57.324219 40.546875 57.375 40.121094 C 57.425781 39.699219 57.347656 39.296875 57.148438 38.917969 L 63.820312 33.671875 C 63.835938 33.691406 63.855469 33.707031 63.875 33.722656 L 60.910156 38.953125 C 60.765625 38.90625 60.617188 38.886719 60.464844 38.886719 C 60.160156 38.886719 59.882812 38.972656 59.628906 39.148438 C 59.378906 39.320312 59.199219 39.550781 59.089844 39.835938 C 58.980469 40.125 58.960938 40.414062 59.035156 40.710938 C 59.109375 41.011719 59.261719 41.261719 59.488281 41.464844 L 56.972656 48.808594 C 56.832031 48.765625 57.015625 48.742188 56.53125 48.742188 C 56.046875 48.742188 55.054688 49.402344 55.054688 50.21875 C 55.054688 50.414062 55.09375 50.601562 55.167969 50.78125 C 55.242188 50.960938 55.347656 51.121094 55.488281 51.261719 C 55.625 51.398438 55.785156 51.503906 55.964844 51.578125 C 56.144531 51.65625 56.335938 51.691406 56.53125 51.691406 C 57.34375 51.691406 58.003906 50.84375 58.003906 50.21875 C 58.003906 49.589844 57.8125 49.382812 57.507812 49.113281 L 60.023438 41.769531 L 60.101562 41.789062 L 61.578125 45.996094 C 61.332031 46.050781 61.132812 46.179688 60.976562 46.378906 C 60.824219 46.574219 60.75 46.800781 60.753906 47.050781 C 60.753906 47.605469 61.242188 48.140625 61.84375 48.140625 C 62.445312 48.140625 62.933594 47.59375 62.933594 47.050781 C 62.933594 46.511719 62.625 46.167969 62.191406 46.019531 L 60.71875 41.8125 C 61.066406 41.753906 61.355469 41.589844 61.585938 41.316406 C 61.816406 41.046875 61.933594 40.734375 61.941406 40.382812 L 68.679688 39.035156 C 68.761719 39.1875 68.875 39.316406 69.019531 39.417969 C 69.164062 39.519531 69.320312 39.582031 69.496094 39.605469 C 69.671875 39.628906 69.839844 39.609375 70.003906 39.550781 C 70.171875 39.492188 70.3125 39.398438 70.433594 39.269531 C 70.554688 39.140625 70.640625 38.992188 70.6875 38.824219 C 70.734375 38.65625 70.742188 38.484375 70.707031 38.3125 C 70.671875 38.140625 70.601562 37.984375 70.492188 37.847656 C 70.382812 37.710938 70.246094 37.605469 70.085938 37.535156 C 69.925781 37.460938 69.757812 37.429688 69.582031 37.441406 C 69.40625 37.449219 69.246094 37.5 69.09375 37.585938 C 68.941406 37.675781 68.816406 37.792969 68.722656 37.941406 C 68.628906 38.089844 68.574219 38.253906 68.558594 38.425781 L 61.816406 39.773438 C 61.726562 39.574219 61.601562 39.402344 61.441406 39.257812 L 64.40625 34.027344 C 64.644531 34.109375 64.890625 34.144531 65.144531 34.125 C 65.394531 34.101562 65.632812 34.03125 65.855469 33.914062 C 66.078125 33.792969 66.269531 33.628906 66.421875 33.429688 C 66.578125 33.226562 66.683594 33.003906 66.742188 32.757812 C 66.800781 32.511719 66.808594 32.261719 66.761719 32.011719 C 66.714844 31.765625 66.621094 31.535156 66.476562 31.328125 C 66.332031 31.117188 66.152344 30.945312 65.9375 30.816406 C 65.71875 30.683594 65.488281 30.601562 65.234375 30.566406 L 65.003906 25.390625 C 65.304688 25.324219 65.570312 25.191406 65.796875 24.984375 L 70.984375 29.15625 C 70.914062 29.285156 70.859375 29.421875 70.820312 29.5625 C 70.78125 29.707031 70.761719 29.851562 70.761719 30 C 70.761719 30.148438 70.777344 30.296875 70.8125 30.441406 C 70.847656 30.585938 70.898438 30.722656 70.96875 30.855469 C 71.035156 30.984375 71.121094 31.105469 71.21875 31.214844 C 71.316406 31.328125 71.429688 31.421875 71.550781 31.507812 C 71.675781 31.589844 71.808594 31.65625 71.945312 31.707031 C 72.085938 31.753906 72.230469 31.789062 72.378906 31.800781 C 72.523438 31.816406 72.671875 31.8125 72.820312 31.789062 C 72.964844 31.769531 73.105469 31.730469 73.242188 31.671875 C 73.378906 31.613281 73.507812 31.539062 73.625 31.453125 C 73.746094 31.363281 73.851562 31.261719 73.945312 31.144531 C 74.039062 31.027344 74.113281 30.902344 74.175781 30.769531 C 74.238281 30.632812 74.285156 30.492188 74.3125 30.347656 C 74.339844 30.203125 74.347656 30.054688 74.335938 29.90625 C 74.328125 29.757812 74.300781 29.613281 74.253906 29.472656 C 74.210938 29.332031 74.148438 29.199219 74.070312 29.074219 C 73.992188 28.945312 73.898438 28.832031 73.792969 28.730469 C 73.683594 28.628906 73.566406 28.539062 73.4375 28.464844 C 73.308594 28.390625 73.171875 28.335938 73.03125 28.296875 C 72.886719 28.257812 72.742188 28.234375 72.59375 28.230469 C 72.445312 28.226562 72.296875 28.242188 72.152344 28.277344 C 72.007812 28.308594 71.871094 28.359375 71.738281 28.425781 C 71.605469 28.492188 71.484375 28.578125 71.371094 28.675781 L 66.195312 24.507812 C 66.316406 24.28125 66.390625 24.039062 66.410156 23.78125 C 66.429688 23.523438 66.394531 23.273438 66.308594 23.03125 C 66.21875 22.789062 66.082031 22.574219 65.902344 22.390625 C 65.722656 22.207031 65.511719 22.066406 65.269531 21.972656 C 65.027344 21.882812 64.777344 21.84375 64.519531 21.859375 C 64.261719 21.875 64.019531 21.941406 63.792969 22.0625 C 63.5625 22.183594 63.371094 22.34375 63.210938 22.550781 C 63.054688 22.753906 62.945312 22.984375 62.886719 23.234375 L 56.988281 22.898438 C 56.964844 22.488281 56.851562 22.109375 56.648438 21.753906 L 59.324219 19.757812 C 59.429688 19.855469 59.542969 19.9375 59.667969 20.003906 C 59.792969 20.074219 59.921875 20.125 60.058594 20.160156 C 60.195312 20.191406 60.335938 20.210938 60.476562 20.210938 C 60.621094 20.210938 60.757812 20.191406 60.894531 20.15625 C 61.03125 20.121094 61.164062 20.070312 61.289062 20 C 61.410156 19.933594 61.523438 19.851562 61.628906 19.753906 C 61.730469 19.65625 61.820312 19.550781 61.898438 19.429688 C 61.972656 19.308594 62.035156 19.183594 62.078125 19.050781 L 69.703125 20.105469 C 69.726562 20.320312 69.796875 20.515625 69.914062 20.691406 C 70.035156 20.871094 70.1875 21.011719 70.375 21.117188 C 70.5625 21.21875 70.765625 21.273438 70.980469 21.273438 C 71.195312 21.277344 71.398438 21.230469 71.589844 21.136719 C 71.78125 21.039062 71.9375 20.902344 72.0625 20.730469 C 72.1875 20.554688 72.265625 20.359375 72.292969 20.148438 C 72.324219 19.933594 72.300781 19.726562 72.226562 19.527344 C 72.15625 19.324219 72.039062 19.152344 71.878906 19.007812 C 71.722656 18.863281 71.539062 18.761719 71.332031 18.710938 C 71.125 18.65625 70.914062 18.652344 70.707031 18.699219 C 70.496094 18.75 70.3125 18.84375 70.148438 18.984375 C 69.988281 19.125 69.867188 19.292969 69.789062 19.492188 L 62.164062 18.445312 C 62.152344 18.210938 62.097656 17.988281 61.992188 17.777344 L 65.730469 14.988281 C 65.894531 15.125 66.082031 15.214844 66.289062 15.257812 C 66.5 15.300781 66.707031 15.292969 66.914062 15.234375 C 67.121094 15.175781 67.300781 15.074219 67.457031 14.925781 C 67.609375 14.777344 67.722656 14.601562 67.792969 14.398438 C 67.859375 14.195312 67.878906 13.988281 67.84375 13.777344 C 67.808594 13.566406 67.730469 13.375 67.601562 13.203125 C 67.472656 13.03125 67.3125 12.898438 67.117188 12.808594 C 66.925781 12.714844 66.722656 12.671875 66.507812 12.679688 C 66.292969 12.6875 66.09375 12.746094 65.90625 12.851562 C 65.722656 12.960938 65.570312 13.105469 65.457031 13.285156 C 65.34375 13.464844 65.277344 13.664062 65.257812 13.875 C 65.242188 14.089844 65.273438 14.296875 65.359375 14.492188 L 61.621094 17.28125 C 61.460938 17.132812 61.277344 17.019531 61.074219 16.941406 C 60.867188 16.863281 60.65625 16.828125 60.4375 16.832031 C 60.214844 16.835938 60.007812 16.882812 59.804688 16.96875 C 59.601562 17.054688 59.425781 17.175781 59.269531 17.332031 L 55.027344 14.441406 C 55.101562 14.242188 55.125 14.035156 55.097656 13.820312 C 55.070312 13.609375 55 13.414062 54.875 13.238281 C 54.753906 13.0625 54.597656 12.925781 54.410156 12.824219 C 54.21875 12.726562 54.015625 12.675781 53.804688 12.675781 Z M 77.550781 25.78125 C 78.976562 49.773438 51.148438 45.195312 50.683594 73.480469 C 54.402344 67.507812 58.359375 65.128906 62.566406 66.339844 C 68.597656 70.351562 72.382812 70.398438 73.921875 66.480469 C 73.679688 64.90625 74.074219 63.820312 75.101562 63.226562 C 76.9375 63.089844 77.632812 62.179688 77.1875 60.5 C 78.75 60.886719 79.613281 60.484375 79.78125 59.292969 C 79.175781 57.109375 80.3125 55.976562 83.191406 55.902344 C 85.238281 55.730469 86.167969 54.988281 85.988281 53.667969 C 85.257812 50.019531 84.753906 47.433594 84.480469 45.910156 C 83.8125 43.582031 84.183594 41.359375 85.597656 39.246094 C 90.808594 27.554688 87.941406 17.382812 76.996094 8.726562 C 61.945312 -1.46875 48.140625 0.335938 39.632812 9.988281 C 40.429688 9.285156 41.273438 8.640625 42.164062 8.054688 C 43.054688 7.46875 43.980469 6.945312 44.941406 6.488281 C 45.902344 6.03125 46.894531 5.644531 47.910156 5.328125 C 48.925781 5.007812 49.960938 4.761719 51.011719 4.589844 C 52.0625 4.417969 53.121094 4.316406 54.183594 4.289062 C 55.25 4.265625 56.3125 4.3125 57.371094 4.4375 C 58.425781 4.558594 59.472656 4.753906 60.503906 5.023438 C 61.53125 5.292969 62.539062 5.632812 63.523438 6.039062 C 64.507812 6.449219 65.457031 6.925781 66.375 7.46875 C 67.289062 8.011719 68.164062 8.613281 68.996094 9.277344 C 69.828125 9.945312 70.609375 10.664062 71.34375 11.4375 C 72.074219 12.210938 72.75 13.03125 73.367188 13.898438 C 73.984375 14.769531 74.535156 15.675781 75.027344 16.621094 C 75.515625 17.566406 75.9375 18.542969 76.292969 19.546875 C 76.644531 20.550781 76.929688 21.574219 77.140625 22.621094 C 77.347656 23.664062 77.484375 24.71875 77.550781 25.78125 Z M 77.550781 25.78125 " fill-opacity="1" fill-rule="evenodd"/></g><g clip-path="url(#50fcd0d953)"><g clip-path="url(#4248d56adc)"><path fill="#0a2463" d="M 32.957031 -1.46875 L 90.8125 -1.46875 L 90.8125 73.480469 L 32.957031 73.480469 Z M 32.957031 -1.46875 " fill-opacity="1" fill-rule="nonzero"/></g></g><g fill="#0a2463" fill-opacity="1"><g transform="translate(93.412318, 46.127501)"><g><path d="M 5.96875 -14.0625 L 5.96875 -11.46875 L 12.578125 -11.46875 L 12.578125 -7.09375 L 5.96875 -7.09375 L 5.96875 0 L 1.046875 0 L 1.046875 -18.5625 L 12.578125 -18.5625 L 12.578125 -14.0625 Z M 5.96875 -14.0625 "/></g></g></g><g fill="#0a2463" fill-opacity="1"><g transform="translate(107.032353, 46.127501)"><g><path d="M 5.96875 -18.5625 L 5.96875 0 L 1.046875 0 L 1.046875 -18.5625 Z M 5.96875 -18.5625 "/></g></g></g><g fill="#0a2463" fill-opacity="1"><g transform="translate(114.046482, 46.127501)"><g><path d="M 1.046875 0 L 1.046875 -18.5625 L 5.15625 -18.5625 L 9.3125 -9.90625 L 9.3125 -18.5625 L 14.25 -18.5625 L 14.25 0 L 10.140625 0 L 5.96875 -8.6875 L 5.96875 0 Z M 1.046875 0 "/></g></g></g><g fill="#0a2463" fill-opacity="1"><g transform="translate(129.37366, 46.127501)"><g><path d="M 5.96875 -18.5625 L 5.96875 0 L 1.046875 0 L 1.046875 -18.5625 Z M 5.96875 -18.5625 "/></g></g></g><g fill="#0a2463" fill-opacity="1"><g transform="translate(136.387788, 46.127501)"><g><path d="M 14.140625 -13.65625 L 10.015625 -13.65625 L 10.015625 0 L 5.078125 0 L 5.078125 -13.65625 L 0.921875 -13.65625 L 0.921875 -18.5625 L 14.140625 -18.5625 Z M 14.140625 -13.65625 "/></g></g></g><g fill="#0a2463" fill-opacity="1"><g transform="translate(151.455175, 46.127501)"><g><path d="M 5.96875 -14.0625 L 5.96875 -11.46875 L 12.578125 -11.46875 L 12.578125 -7.09375 L 5.96875 -7.09375 L 5.96875 -4.484375 L 12.578125 -4.484375 L 12.578125 0 L 1.046875 0 L 1.046875 -18.5625 L 12.578125 -18.5625 L 12.578125 -14.0625 Z M 5.96875 -14.0625 "/></g></g></g><g fill="#0a2463" fill-opacity="1"><g transform="translate(165.07521, 46.127501)"><g><path d="M 9.609375 -7.640625 C 9.515625 -6.703125 9.300781 -5.972656 8.96875 -5.453125 C 8.632812 -4.929688 8.21875 -4.671875 7.71875 -4.671875 C 7.070312 -4.671875 6.566406 -5.066406 6.203125 -5.859375 C 5.847656 -6.648438 5.671875 -7.789062 5.671875 -9.28125 C 5.671875 -10.757812 5.847656 -11.894531 6.203125 -12.6875 C 6.566406 -13.488281 7.070312 -13.890625 7.71875 -13.890625 C 8.707031 -13.890625 9.335938 -12.894531 9.609375 -10.90625 L 14.359375 -11.796875 C 13.992188 -14.054688 13.234375 -15.789062 12.078125 -17 C 10.929688 -18.207031 9.476562 -18.8125 7.71875 -18.8125 C 5.519531 -18.8125 3.828125 -17.984375 2.640625 -16.328125 C 1.453125 -14.671875 0.859375 -12.320312 0.859375 -9.28125 C 0.859375 -6.238281 1.453125 -3.882812 2.640625 -2.21875 C 3.828125 -0.5625 5.519531 0.265625 7.71875 0.265625 C 9.476562 0.265625 10.925781 -0.347656 12.0625 -1.578125 C 13.195312 -2.804688 13.960938 -4.546875 14.359375 -6.796875 Z M 9.609375 -7.640625 "/></g></g></g><g fill="#0a2463" fill-opacity="1"><g transform="translate(180.29105, 46.127501)"><g><path d="M 14.25 -18.5625 L 14.25 0 L 9.3125 0 L 9.3125 -6.828125 L 5.96875 -6.828125 L 5.96875 0 L 1.046875 0 L 1.046875 -18.5625 L 5.96875 -18.5625 L 5.96875 -11.734375 L 9.3125 -11.734375 L 9.3125 -18.5625 Z M 14.25 -18.5625 "/></g></g></g><g transform="matrix(1, 0, 0, 1, 88, 49)"><g clip-path="url(#e13edf29c0)"><g clip-path="url(#2ec60f17a5)"><g fill="#0a2463" fill-opacity="1"><g transform="translate(0.410444, 7.989243)"><g><path d="M 3.328125 0.09375 C 2.753906 0.09375 2.238281 -0.0234375 1.78125 -0.265625 C 1.320312 -0.515625 0.960938 -0.859375 0.703125 -1.296875 C 0.441406 -1.734375 0.3125 -2.222656 0.3125 -2.765625 C 0.3125 -3.304688 0.441406 -3.789062 0.703125 -4.21875 C 0.960938 -4.65625 1.320312 -5 1.78125 -5.25 C 2.238281 -5.5 2.753906 -5.625 3.328125 -5.625 C 3.898438 -5.625 4.414062 -5.5 4.875 -5.25 C 5.332031 -5 5.691406 -4.65625 5.953125 -4.21875 C 6.222656 -3.789062 6.359375 -3.304688 6.359375 -2.765625 C 6.359375 -2.222656 6.222656 -1.734375 5.953125 -1.296875 C 5.691406 -0.859375 5.332031 -0.515625 4.875 -0.265625 C 4.414062 -0.0234375 3.898438 0.09375 3.328125 0.09375 Z M 3.328125 -1 C 3.648438 -1 3.941406 -1.070312 4.203125 -1.21875 C 4.472656 -1.363281 4.679688 -1.570312 4.828125 -1.84375 C 4.984375 -2.113281 5.0625 -2.421875 5.0625 -2.765625 C 5.0625 -3.109375 4.984375 -3.410156 4.828125 -3.671875 C 4.679688 -3.941406 4.472656 -4.148438 4.203125 -4.296875 C 3.941406 -4.453125 3.648438 -4.53125 3.328125 -4.53125 C 3.003906 -4.53125 2.707031 -4.453125 2.4375 -4.296875 C 2.175781 -4.148438 1.972656 -3.941406 1.828125 -3.671875 C 1.679688 -3.410156 1.609375 -3.109375 1.609375 -2.765625 C 1.609375 -2.421875 1.679688 -2.113281 1.828125 -1.84375 C 1.972656 -1.570312 2.175781 -1.363281 2.4375 -1.21875 C 2.707031 -1.070312 3.003906 -1 3.328125 -1 Z M 3.328125 -1 "/></g></g></g></g><g fill="#0a2463" fill-opacity="1"><g transform="translate(7.068489, 7.989243)"><g><path d="M 4.171875 0 L 3.109375 -1.53125 L 1.9375 -1.53125 L 1.9375 0 L 0.65625 0 L 0.65625 -5.53125 L 3.046875 -5.53125 C 3.535156 -5.53125 3.957031 -5.445312 4.3125 -5.28125 C 4.675781 -5.113281 4.953125 -4.878906 5.140625 -4.578125 C 5.335938 -4.285156 5.4375 -3.929688 5.4375 -3.515625 C 5.4375 -3.109375 5.335938 -2.753906 5.140625 -2.453125 C 4.953125 -2.160156 4.675781 -1.9375 4.3125 -1.78125 L 5.546875 0 Z M 4.15625 -3.515625 C 4.15625 -3.828125 4.050781 -4.066406 3.84375 -4.234375 C 3.644531 -4.398438 3.351562 -4.484375 2.96875 -4.484375 L 1.9375 -4.484375 L 1.9375 -2.5625 L 2.96875 -2.5625 C 3.351562 -2.5625 3.644531 -2.644531 3.84375 -2.8125 C 4.050781 -2.976562 4.15625 -3.210938 4.15625 -3.515625 Z M 4.15625 -3.515625 "/></g></g></g><g fill="#0a2463" fill-opacity="1"><g transform="translate(12.866675, 7.989243)"><g><path d="M 0.65625 -5.53125 L 1.9375 -5.53125 L 1.9375 0 L 0.65625 0 Z M 0.65625 -5.53125 "/></g></g></g><g fill="#0a2463" fill-opacity="1"><g transform="translate(15.454168, 7.989243)"><g><path d="M 4.390625 -2.84375 L 5.5625 -2.84375 L 5.5625 -0.609375 C 5.257812 -0.378906 4.910156 -0.203125 4.515625 -0.078125 C 4.117188 0.0351562 3.722656 0.09375 3.328125 0.09375 C 2.753906 0.09375 2.238281 -0.0234375 1.78125 -0.265625 C 1.320312 -0.515625 0.960938 -0.851562 0.703125 -1.28125 C 0.441406 -1.71875 0.3125 -2.210938 0.3125 -2.765625 C 0.3125 -3.304688 0.441406 -3.796875 0.703125 -4.234375 C 0.960938 -4.671875 1.320312 -5.007812 1.78125 -5.25 C 2.25 -5.5 2.769531 -5.625 3.34375 -5.625 C 3.832031 -5.625 4.269531 -5.539062 4.65625 -5.375 C 5.050781 -5.207031 5.382812 -4.96875 5.65625 -4.65625 L 4.84375 -3.90625 C 4.445312 -4.320312 3.96875 -4.53125 3.40625 -4.53125 C 3.050781 -4.53125 2.738281 -4.457031 2.46875 -4.3125 C 2.195312 -4.164062 1.984375 -3.957031 1.828125 -3.6875 C 1.679688 -3.414062 1.609375 -3.109375 1.609375 -2.765625 C 1.609375 -2.421875 1.679688 -2.113281 1.828125 -1.84375 C 1.984375 -1.570312 2.195312 -1.363281 2.46875 -1.21875 C 2.738281 -1.070312 3.046875 -1 3.390625 -1 C 3.765625 -1 4.097656 -1.078125 4.390625 -1.234375 Z M 4.390625 -2.84375 "/></g></g></g><g fill="#0a2463" fill-opacity="1"><g transform="translate(21.536338, 7.989243)"><g><path d="M 0.65625 -5.53125 L 1.9375 -5.53125 L 1.9375 0 L 0.65625 0 Z M 0.65625 -5.53125 "/></g></g></g><g fill="#0a2463" fill-opacity="1"><g transform="translate(24.123831, 7.989243)"><g><path d="M 5.71875 -5.53125 L 5.71875 0 L 4.671875 0 L 1.921875 -3.359375 L 1.921875 0 L 0.65625 0 L 0.65625 -5.53125 L 1.71875 -5.53125 L 4.453125 -2.171875 L 4.453125 -5.53125 Z M 5.71875 -5.53125 "/></g></g></g><g fill="#0a2463" fill-opacity="1"><g transform="translate(30.497891, 7.989243)"><g><path d="M 4.296875 -1.1875 L 1.734375 -1.1875 L 1.234375 0 L -0.078125 0 L 2.390625 -5.53125 L 3.65625 -5.53125 L 6.125 0 L 4.78125 0 Z M 3.890625 -2.15625 L 3.015625 -4.265625 L 2.140625 -2.15625 Z M 3.890625 -2.15625 "/></g></g></g><g fill="#0a2463" fill-opacity="1"><g transform="translate(36.54062, 7.989243)"><g><path d="M 0.65625 -5.53125 L 1.9375 -5.53125 L 1.9375 -1.046875 L 4.703125 -1.046875 L 4.703125 0 L 0.65625 0 Z M 0.65625 -5.53125 "/></g></g></g><g fill="#0a2463" fill-opacity="1"><g transform="translate(41.305382, 7.989243)"><g/></g></g><g fill="#0a2463" fill-opacity="1"><g transform="translate(43.537881, 7.989243)"><g><path d="M 1.796875 -4.484375 L 0.03125 -4.484375 L 0.03125 -5.53125 L 4.84375 -5.53125 L 4.84375 -4.484375 L 3.078125 -4.484375 L 3.078125 0 L 1.796875 0 Z M 1.796875 -4.484375 "/></g></g></g><g fill="#0a2463" fill-opacity="1"><g transform="translate(48.413082, 7.989243)"><g><path d="M 4.9375 -1.03125 L 4.9375 0 L 0.65625 0 L 0.65625 -5.53125 L 4.828125 -5.53125 L 4.828125 -4.5 L 1.921875 -4.5 L 1.921875 -3.296875 L 4.484375 -3.296875 L 4.484375 -2.296875 L 1.921875 -2.296875 L 1.921875 -1.03125 Z M 4.9375 -1.03125 "/></g></g></g><g fill="#0a2463" fill-opacity="1"><g transform="translate(53.706392, 7.989243)"><g><path d="M 3.296875 0.09375 C 2.734375 0.09375 2.222656 -0.0234375 1.765625 -0.265625 C 1.316406 -0.515625 0.960938 -0.851562 0.703125 -1.28125 C 0.441406 -1.71875 0.3125 -2.210938 0.3125 -2.765625 C 0.3125 -3.304688 0.441406 -3.796875 0.703125 -4.234375 C 0.960938 -4.671875 1.316406 -5.007812 1.765625 -5.25 C 2.222656 -5.5 2.738281 -5.625 3.3125 -5.625 C 3.789062 -5.625 4.222656 -5.535156 4.609375 -5.359375 C 4.992188 -5.191406 5.316406 -4.953125 5.578125 -4.640625 L 4.765625 -3.875 C 4.390625 -4.3125 3.925781 -4.53125 3.375 -4.53125 C 3.03125 -4.53125 2.722656 -4.453125 2.453125 -4.296875 C 2.179688 -4.148438 1.972656 -3.941406 1.828125 -3.671875 C 1.679688 -3.410156 1.609375 -3.109375 1.609375 -2.765625 C 1.609375 -2.421875 1.679688 -2.113281 1.828125 -1.84375 C 1.972656 -1.570312 2.179688 -1.363281 2.453125 -1.21875 C 2.722656 -1.070312 3.03125 -1 3.375 -1 C 3.925781 -1 4.390625 -1.21875 4.765625 -1.65625 L 5.578125 -0.890625 C 5.316406 -0.566406 4.988281 -0.320312 4.59375 -0.15625 C 4.207031 0.0078125 3.773438 0.09375 3.296875 0.09375 Z M 3.296875 0.09375 "/></g></g></g><g fill="#0a2463" fill-opacity="1"><g transform="translate(59.488799, 7.989243)"><g><path d="M 5.71875 -5.53125 L 5.71875 0 L 4.4375 0 L 4.4375 -2.265625 L 1.9375 -2.265625 L 1.9375 0 L 0.65625 0 L 0.65625 -5.53125 L 1.9375 -5.53125 L 1.9375 -3.34375 L 4.4375 -3.34375 L 4.4375 -5.53125 Z M 5.71875 -5.53125 "/></g></g></g><g fill="#0a2463" fill-opacity="1"><g transform="translate(65.862859, 7.989243)"><g/></g></g><g fill="#0a2463" fill-opacity="1"><g transform="translate(68.095358, 7.989243)"><g><path d="M 2.46875 0.09375 C 2.03125 0.09375 1.609375 0.0351562 1.203125 -0.078125 C 0.796875 -0.203125 0.46875 -0.359375 0.21875 -0.546875 L 0.65625 -1.5 C 0.894531 -1.332031 1.175781 -1.195312 1.5 -1.09375 C 1.820312 -0.988281 2.148438 -0.9375 2.484375 -0.9375 C 2.835938 -0.9375 3.101562 -0.988281 3.28125 -1.09375 C 3.457031 -1.195312 3.546875 -1.335938 3.546875 -1.515625 C 3.546875 -1.648438 3.492188 -1.757812 3.390625 -1.84375 C 3.285156 -1.9375 3.148438 -2.007812 2.984375 -2.0625 C 2.828125 -2.113281 2.613281 -2.171875 2.34375 -2.234375 C 1.925781 -2.335938 1.582031 -2.4375 1.3125 -2.53125 C 1.039062 -2.632812 0.804688 -2.796875 0.609375 -3.015625 C 0.421875 -3.234375 0.328125 -3.523438 0.328125 -3.890625 C 0.328125 -4.210938 0.414062 -4.503906 0.59375 -4.765625 C 0.769531 -5.023438 1.03125 -5.234375 1.375 -5.390625 C 1.726562 -5.546875 2.15625 -5.625 2.65625 -5.625 C 3.007812 -5.625 3.351562 -5.578125 3.6875 -5.484375 C 4.03125 -5.398438 4.328125 -5.28125 4.578125 -5.125 L 4.1875 -4.15625 C 3.675781 -4.445312 3.164062 -4.59375 2.65625 -4.59375 C 2.289062 -4.59375 2.023438 -4.535156 1.859375 -4.421875 C 1.691406 -4.304688 1.609375 -4.15625 1.609375 -3.96875 C 1.609375 -3.769531 1.703125 -3.625 1.890625 -3.53125 C 2.085938 -3.445312 2.390625 -3.359375 2.796875 -3.265625 C 3.222656 -3.160156 3.566406 -3.054688 3.828125 -2.953125 C 4.097656 -2.859375 4.328125 -2.703125 4.515625 -2.484375 C 4.710938 -2.273438 4.8125 -1.988281 4.8125 -1.625 C 4.8125 -1.300781 4.722656 -1.007812 4.546875 -0.75 C 4.367188 -0.488281 4.101562 -0.28125 3.75 -0.125 C 3.40625 0.0195312 2.976562 0.09375 2.46875 0.09375 Z M 2.46875 0.09375 "/></g></g></g><g fill="#0a2463" fill-opacity="1"><g transform="translate(73.128336, 7.989243)"><g><path d="M 3.328125 0.09375 C 2.753906 0.09375 2.238281 -0.0234375 1.78125 -0.265625 C 1.320312 -0.515625 0.960938 -0.859375 0.703125 -1.296875 C 0.441406 -1.734375 0.3125 -2.222656 0.3125 -2.765625 C 0.3125 -3.304688 0.441406 -3.789062 0.703125 -4.21875 C 0.960938 -4.65625 1.320312 -5 1.78125 -5.25 C 2.238281 -5.5 2.753906 -5.625 3.328125 -5.625 C 3.898438 -5.625 4.414062 -5.5 4.875 -5.25 C 5.332031 -5 5.691406 -4.65625 5.953125 -4.21875 C 6.222656 -3.789062 6.359375 -3.304688 6.359375 -2.765625 C 6.359375 -2.222656 6.222656 -1.734375 5.953125 -1.296875 C 5.691406 -0.859375 5.332031 -0.515625 4.875 -0.265625 C 4.414062 -0.0234375 3.898438 0.09375 3.328125 0.09375 Z M 3.328125 -1 C 3.648438 -1 3.941406 -1.070312 4.203125 -1.21875 C 4.472656 -1.363281 4.679688 -1.570312 4.828125 -1.84375 C 4.984375 -2.113281 5.0625 -2.421875 5.0625 -2.765625 C 5.0625 -3.109375 4.984375 -3.410156 4.828125 -3.671875 C 4.679688 -3.941406 4.472656 -4.148438 4.203125 -4.296875 C 3.941406 -4.453125 3.648438 -4.53125 3.328125 -4.53125 C 3.003906 -4.53125 2.707031 -4.453125 2.4375 -4.296875 C 2.175781 -4.148438 1.972656 -3.941406 1.828125 -3.671875 C 1.679688 -3.410156 1.609375 -3.109375 1.609375 -2.765625 C 1.609375 -2.421875 1.679688 -2.113281 1.828125 -1.84375 C 1.972656 -1.570312 2.175781 -1.363281 2.4375 -1.21875 C 2.707031 -1.070312 3.003906 -1 3.328125 -1 Z M 3.328125 -1 "/></g></g></g><g fill="#0a2463" fill-opacity="1"><g transform="translate(79.786381, 7.989243)"><g><path d="M 0.65625 -5.53125 L 1.9375 -5.53125 L 1.9375 -1.046875 L 4.703125 -1.046875 L 4.703125 0 L 0.65625 0 Z M 0.65625 -5.53125 "/></g></g></g><g fill="#0a2463" fill-opacity="1"><g transform="translate(84.551143, 7.989243)"><g><path d="M 3.109375 0.09375 C 2.316406 0.09375 1.703125 -0.125 1.265625 -0.5625 C 0.828125 -1 0.609375 -1.625 0.609375 -2.4375 L 0.609375 -5.53125 L 1.890625 -5.53125 L 1.890625 -2.484375 C 1.890625 -1.492188 2.296875 -1 3.109375 -1 C 3.515625 -1 3.820312 -1.117188 4.03125 -1.359375 C 4.238281 -1.597656 4.34375 -1.972656 4.34375 -2.484375 L 4.34375 -5.53125 L 5.609375 -5.53125 L 5.609375 -2.4375 C 5.609375 -1.625 5.390625 -1 4.953125 -0.5625 C 4.515625 -0.125 3.898438 0.09375 3.109375 0.09375 Z M 3.109375 0.09375 "/></g></g></g><g fill="#0a2463" fill-opacity="1"><g transform="translate(90.767426, 7.989243)"><g><path d="M 1.796875 -4.484375 L 0.03125 -4.484375 L 0.03125 -5.53125 L 4.84375 -5.53125 L 4.84375 -4.484375 L 3.078125 -4.484375 L 3.078125 0 L 1.796875 0 Z M 1.796875 -4.484375 "/></g></g></g><g fill="#0a2463" fill-opacity="1"><g transform="translate(95.642628, 7.989243)"><g><path d="M 0.65625 -5.53125 L 1.9375 -5.53125 L 1.9375 0 L 0.65625 0 Z M 0.65625 -5.53125 "/></g></g></g><g fill="#0a2463" fill-opacity="1"><g transform="translate(98.230121, 7.989243)"><g><path d="M 3.328125 0.09375 C 2.753906 0.09375 2.238281 -0.0234375 1.78125 -0.265625 C 1.320312 -0.515625 0.960938 -0.859375 0.703125 -1.296875 C 0.441406 -1.734375 0.3125 -2.222656 0.3125 -2.765625 C 0.3125 -3.304688 0.441406 -3.789062 0.703125 -4.21875 C 0.960938 -4.65625 1.320312 -5 1.78125 -5.25 C 2.238281 -5.5 2.753906 -5.625 3.328125 -5.625 C 3.898438 -5.625 4.414062 -5.5 4.875 -5.25 C 5.332031 -5 5.691406 -4.65625 5.953125 -4.21875 C 6.222656 -3.789062 6.359375 -3.304688 6.359375 -2.765625 C 6.359375 -2.222656 6.222656 -1.734375 5.953125 -1.296875 C 5.691406 -0.859375 5.332031 -0.515625 4.875 -0.265625 C 4.414062 -0.0234375 3.898438 0.09375 3.328125 0.09375 Z M 3.328125 -1 C 3.648438 -1 3.941406 -1.070312 4.203125 -1.21875 C 4.472656 -1.363281 4.679688 -1.570312 4.828125 -1.84375 C 4.984375 -2.113281 5.0625 -2.421875 5.0625 -2.765625 C 5.0625 -3.109375 4.984375 -3.410156 4.828125 -3.671875 C 4.679688 -3.941406 4.472656 -4.148438 4.203125 -4.296875 C 3.941406 -4.453125 3.648438 -4.53125 3.328125 -4.53125 C 3.003906 -4.53125 2.707031 -4.453125 2.4375 -4.296875 C 2.175781 -4.148438 1.972656 -3.941406 1.828125 -3.671875 C 1.679688 -3.410156 1.609375 -3.109375 1.609375 -2.765625 C 1.609375 -2.421875 1.679688 -2.113281 1.828125 -1.84375 C 1.972656 -1.570312 2.175781 -1.363281 2.4375 -1.21875 C 2.707031 -1.070312 3.003906 -1 3.328125 -1 Z M 3.328125 -1 "/></g></g></g><g fill="#0a2463" fill-opacity="1"><g transform="translate(104.888166, 7.989243)"><g><path d="M 5.71875 -5.53125 L 5.71875 0 L 4.671875 0 L 1.921875 -3.359375 L 1.921875 0 L 0.65625 0 L 0.65625 -5.53125 L 1.71875 -5.53125 L 4.453125 -2.171875 L 4.453125 -5.53125 Z M 5.71875 -5.53125 "/></g></g></g><g clip-path="url(#999348bd0b)"><g fill="#0a2463" fill-opacity="1"><g transform="translate(111.262226, 7.989243)"><g><path d="M 2.46875 0.09375 C 2.03125 0.09375 1.609375 0.0351562 1.203125 -0.078125 C 0.796875 -0.203125 0.46875 -0.359375 0.21875 -0.546875 L 0.65625 -1.5 C 0.894531 -1.332031 1.175781 -1.195312 1.5 -1.09375 C 1.820312 -0.988281 2.148438 -0.9375 2.484375 -0.9375 C 2.835938 -0.9375 3.101562 -0.988281 3.28125 -1.09375 C 3.457031 -1.195312 3.546875 -1.335938 3.546875 -1.515625 C 3.546875 -1.648438 3.492188 -1.757812 3.390625 -1.84375 C 3.285156 -1.9375 3.148438 -2.007812 2.984375 -2.0625 C 2.828125 -2.113281 2.613281 -2.171875 2.34375 -2.234375 C 1.925781 -2.335938 1.582031 -2.4375 1.3125 -2.53125 C 1.039062 -2.632812 0.804688 -2.796875 0.609375 -3.015625 C 0.421875 -3.234375 0.328125 -3.523438 0.328125 -3.890625 C 0.328125 -4.210938 0.414062 -4.503906 0.59375 -4.765625 C 0.769531 -5.023438 1.03125 -5.234375 1.375 -5.390625 C 1.726562 -5.546875 2.15625 -5.625 2.65625 -5.625 C 3.007812 -5.625 3.351562 -5.578125 3.6875 -5.484375 C 4.03125 -5.398438 4.328125 -5.28125 4.578125 -5.125 L 4.1875 -4.15625 C 3.675781 -4.445312 3.164062 -4.59375 2.65625 -4.59375 C 2.289062 -4.59375 2.023438 -4.535156 1.859375 -4.421875 C 1.691406 -4.304688 1.609375 -4.15625 1.609375 -3.96875 C 1.609375 -3.769531 1.703125 -3.625 1.890625 -3.53125 C 2.085938 -3.445312 2.390625 -3.359375 2.796875 -3.265625 C 3.222656 -3.160156 3.566406 -3.054688 3.828125 -2.953125 C 4.097656 -2.859375 4.328125 -2.703125 4.515625 -2.484375 C 4.710938 -2.273438 4.8125 -1.988281 4.8125 -1.625 C 4.8125 -1.300781 4.722656 -1.007812 4.546875 -0.75 C 4.367188 -0.488281 4.101562 -0.28125 3.75 -0.125 C 3.40625 0.0195312 2.976562 0.09375 2.46875 0.09375 Z M 2.46875 0.09375 "/></g></g></g></g></g></g></svg>