<svg xmlns="http://www.w3.org/2000/svg" xmlns:xlink="http://www.w3.org/1999/xlink" width="40" zoomAndPan="magnify" viewBox="0 0 30 30.000001" height="40" preserveAspectRatio="xMidYMid meet" version="1.0"><defs><clipPath id="330bcb7b31"><path d="M 3.386719 0 L 26 0 L 26 28.777344 L 3.386719 28.777344 Z M 3.386719 0 " clip-rule="nonzero"/></clipPath><clipPath id="d9fc02c71c"><path d="M 3.4375 0.351562 L 25.558594 0.351562 L 25.558594 28.777344 L 3.4375 28.777344 Z M 3.4375 0.351562 " clip-rule="nonzero"/></clipPath><clipPath id="da088c4330"><path d="M 11.628906 17.550781 L 11.90625 16.214844 C 11.457031 15.855469 11.421875 15.460938 11.800781 15.03125 C 12.183594 14.597656 12.578125 14.585938 12.992188 14.988281 L 15.65625 12.890625 C 15.621094 12.828125 15.597656 12.761719 15.585938 12.6875 L 12.148438 12.582031 C 12.109375 13.179688 11.792969 13.527344 11.203125 13.625 L 11.515625 17.527344 C 11.554688 17.53125 11.589844 17.539062 11.628906 17.550781 M 11.875 9.871094 C 11.925781 9.878906 11.980469 9.882812 12.03125 9.882812 C 12.617188 9.882812 12.957031 9.597656 13.058594 9.019531 L 15.421875 9.15625 C 15.464844 9.527344 15.671875 9.734375 16.039062 9.78125 L 16.132812 11.855469 C 15.816406 11.925781 15.628906 12.121094 15.578125 12.445312 L 12.136719 12.335938 C 12.070312 11.910156 11.835938 11.621094 11.4375 11.460938 Z M 11.058594 9.226562 C 11.167969 9.5 11.359375 9.695312 11.632812 9.808594 C 11.464844 10.40625 11.34375 10.816406 11.171875 11.390625 C 11.121094 11.382812 11.347656 11.445312 11.015625 11.378906 C 10.222656 11.222656 9.226562 12.695312 10.488281 13.511719 C 10.351562 13.910156 10.160156 14.480469 10.007812 14.894531 C 9.964844 14.878906 9.917969 14.875 9.871094 14.875 L 9.859375 14.875 C 9.386719 13.429688 8.917969 12.027344 8.421875 10.601562 C 8.703125 10.449219 8.84375 10.214844 8.84375 9.894531 C 8.84375 9.867188 8.84375 9.835938 8.839844 9.808594 Z M 9.386719 6.59375 C 9.535156 6.9375 9.777344 7.023438 10.105469 6.847656 L 11.253906 8.144531 C 11.035156 8.382812 10.953125 8.664062 10.996094 8.984375 L 8.777344 9.570312 C 8.605469 9.171875 8.304688 9.015625 7.878906 9.105469 C 7.449219 9.195312 7.238281 9.457031 7.238281 9.894531 C 7.238281 9.921875 7.238281 9.949219 7.242188 9.976562 L 5.789062 10.363281 C 5.769531 10.320312 5.742188 10.285156 5.710938 10.25 L 7.832031 7.261719 C 7.867188 7.269531 7.898438 7.273438 7.933594 7.273438 C 8.152344 7.273438 8.273438 7.164062 8.296875 6.949219 Z M 11.800781 4.679688 C 11.617188 4.679688 11.472656 4.757812 11.367188 4.910156 C 11.265625 5.058594 11.246094 5.21875 11.3125 5.390625 C 11.378906 5.5625 11.5 5.667969 11.679688 5.710938 C 11.855469 5.753906 12.015625 5.714844 12.148438 5.59375 L 13.847656 6.75 C 13.765625 6.941406 13.769531 7.132812 13.863281 7.320312 L 12.789062 8.121094 C 12.378906 7.6875 11.929688 7.644531 11.4375 7.980469 L 10.292969 6.6875 C 10.449219 6.460938 10.4375 6.246094 10.257812 6.042969 C 10.074219 5.835938 9.863281 5.796875 9.621094 5.925781 L 8.28125 4.40625 C 8.289062 4.378906 8.292969 4.347656 8.292969 4.316406 C 8.292969 4.273438 8.285156 4.234375 8.273438 4.195312 L 9.328125 3.769531 C 9.472656 3.976562 9.667969 4.039062 9.910156 3.960938 C 10.152344 3.882812 10.273438 3.71875 10.273438 3.464844 C 10.273438 3.441406 10.269531 3.414062 10.269531 3.390625 L 11.292969 2.972656 C 11.503906 3.210938 11.695312 3.199219 11.875 2.9375 L 13.394531 3.328125 C 13.394531 3.335938 13.394531 3.34375 13.394531 3.347656 C 13.394531 3.550781 13.476562 3.707031 13.644531 3.820312 C 13.808594 3.933594 13.984375 3.953125 14.171875 3.882812 C 14.359375 3.808594 14.476562 3.675781 14.523438 3.480469 C 14.570312 3.285156 14.527344 3.113281 14.390625 2.964844 C 14.257812 2.816406 14.089844 2.753906 13.890625 2.78125 C 13.691406 2.808594 13.546875 2.910156 13.457031 3.089844 L 11.933594 2.695312 C 11.914062 2.460938 11.789062 2.351562 11.550781 2.359375 C 11.316406 2.371094 11.199219 2.496094 11.199219 2.730469 L 11.199219 2.746094 L 10.175781 3.160156 C 10.027344 2.953125 9.832031 2.890625 9.589844 2.96875 C 9.347656 3.046875 9.226562 3.210938 9.226562 3.464844 C 9.226562 3.492188 9.230469 3.515625 9.234375 3.539062 L 8.109375 3.992188 C 7.925781 3.886719 7.765625 3.917969 7.632812 4.085938 C 7.503906 4.25 7.511719 4.410156 7.65625 4.566406 C 7.800781 4.71875 7.960938 4.734375 8.132812 4.613281 L 9.433594 6.085938 C 9.394531 6.144531 9.367188 6.210938 9.351562 6.28125 L 8.203125 6.65625 C 8.007812 6.445312 7.820312 6.449219 7.644531 6.675781 L 6.78125 6.382812 C 6.78125 6.363281 6.78125 6.34375 6.78125 6.324219 C 6.78125 6.132812 6.703125 5.984375 6.550781 5.875 C 6.394531 5.761719 6.226562 5.738281 6.046875 5.804688 C 5.867188 5.867188 5.75 5.988281 5.699219 6.171875 C 5.644531 6.355469 5.679688 6.523438 5.800781 6.671875 C 5.917969 6.820312 6.074219 6.886719 6.261719 6.875 C 6.453125 6.863281 6.597656 6.777344 6.699219 6.617188 L 7.5625 6.910156 C 7.5625 6.933594 7.566406 6.953125 7.570312 6.972656 L 5.027344 8.460938 C 4.894531 8.320312 4.730469 8.265625 4.539062 8.292969 C 4.347656 8.324219 4.210938 8.425781 4.125 8.601562 C 4.042969 8.777344 4.050781 8.949219 4.148438 9.117188 C 4.246094 9.285156 4.390625 9.375 4.585938 9.390625 C 4.78125 9.402344 4.9375 9.335938 5.058594 9.183594 C 5.179688 9.03125 5.210938 8.859375 5.152344 8.675781 L 7.503906 7.300781 L 5.511719 10.109375 C 5.125 9.949219 4.878906 10.070312 4.769531 10.476562 C 4.660156 10.882812 4.816406 11.113281 5.230469 11.167969 C 5.644531 11.222656 5.855469 11.039062 5.855469 10.621094 C 5.855469 10.613281 5.855469 10.605469 5.855469 10.601562 L 7.308594 10.21875 C 7.398438 10.421875 7.546875 10.566406 7.757812 10.644531 L 7.148438 13.511719 C 7.007812 13.511719 6.882812 13.558594 6.777344 13.652344 L 5.902344 13.015625 C 5.984375 12.832031 5.972656 12.652344 5.863281 12.480469 C 5.757812 12.3125 5.601562 12.222656 5.402344 12.214844 C 5.199219 12.207031 5.039062 12.285156 4.917969 12.449219 C 4.800781 12.609375 4.773438 12.789062 4.84375 12.976562 C 4.910156 13.167969 5.042969 13.289062 5.238281 13.339844 C 5.433594 13.390625 5.605469 13.347656 5.757812 13.214844 L 6.628906 13.851562 C 6.570312 13.988281 6.5625 14.128906 6.613281 14.269531 L 4.4375 15.601562 C 4.296875 15.453125 4.128906 15.398438 3.929688 15.433594 C 3.730469 15.46875 3.589844 15.578125 3.507812 15.761719 C 3.421875 15.945312 3.433594 16.121094 3.539062 16.292969 C 3.644531 16.464844 3.796875 16.558594 4 16.566406 C 4.203125 16.574219 4.363281 16.5 4.484375 16.339844 C 4.605469 16.175781 4.632812 16 4.566406 15.8125 L 6.742188 14.480469 C 6.855469 14.597656 6.992188 14.65625 7.152344 14.652344 C 7.21875 14.652344 7.285156 14.644531 7.347656 14.621094 L 7.769531 15.375 C 7.617188 15.507812 7.558594 15.671875 7.585938 15.871094 C 7.609375 16.070312 7.714844 16.214844 7.890625 16.304688 C 8.070312 16.390625 8.246094 16.386719 8.421875 16.289062 C 8.597656 16.195312 8.691406 16.046875 8.710938 15.847656 C 8.726562 15.648438 8.660156 15.484375 8.503906 15.359375 C 8.347656 15.230469 8.175781 15.195312 7.984375 15.253906 L 7.554688 14.488281 C 7.695312 14.347656 7.75 14.179688 7.714844 13.980469 C 7.679688 13.785156 7.570312 13.644531 7.390625 13.5625 L 8 10.699219 C 8.015625 10.699219 8.027344 10.699219 8.042969 10.699219 C 8.09375 10.699219 8.144531 10.695312 8.191406 10.683594 L 8.742188 12.246094 L 9.625 14.949219 C 9.484375 15.046875 9.417969 15.183594 9.433594 15.355469 C 9.453125 15.53125 9.539062 15.652344 9.699219 15.71875 L 9.144531 17.195312 C 8.726562 17.121094 8.457031 17.285156 8.335938 17.695312 L 7.285156 17.582031 C 7.238281 17.328125 7.085938 17.207031 6.828125 17.21875 C 6.570312 17.230469 6.433594 17.367188 6.410156 17.625 C 6.390625 17.882812 6.507812 18.035156 6.757812 18.089844 L 6.996094 21.289062 C 6.800781 21.347656 6.675781 21.472656 6.613281 21.664062 C 6.554688 21.859375 6.585938 22.035156 6.710938 22.191406 C 6.835938 22.351562 7 22.421875 7.203125 22.40625 C 7.402344 22.390625 7.554688 22.296875 7.65625 22.121094 C 7.757812 21.949219 7.761719 21.769531 7.675781 21.585938 C 7.585938 21.40625 7.441406 21.300781 7.242188 21.269531 L 7.003906 18.074219 C 7.125 18.027344 7.210938 17.945312 7.257812 17.828125 L 8.3125 17.941406 C 8.328125 18.203125 8.457031 18.398438 8.691406 18.519531 C 8.929688 18.640625 9.160156 18.632812 9.386719 18.492188 C 9.613281 18.351562 9.726562 18.152344 9.722656 17.886719 C 9.71875 17.617188 9.605469 17.417969 9.375 17.285156 L 9.953125 15.75 C 10.117188 15.71875 10.230469 15.628906 10.289062 15.46875 C 10.347656 15.3125 10.324219 15.167969 10.21875 15.039062 L 10.738281 13.605469 C 10.8125 13.625 10.882812 13.636719 10.957031 13.640625 L 11.269531 17.542969 C 10.960938 17.617188 10.726562 17.917969 10.726562 18.230469 C 10.726562 18.539062 10.894531 18.757812 11.136719 18.871094 L 9.582031 23.664062 L 9.558594 23.664062 C 9.359375 23.664062 9.199219 23.746094 9.085938 23.910156 C 8.976562 24.078125 8.953125 24.253906 9.027344 24.4375 C 9.097656 24.625 9.230469 24.742188 9.425781 24.789062 C 9.617188 24.835938 9.789062 24.792969 9.9375 24.660156 C 10.085938 24.527344 10.148438 24.359375 10.125 24.164062 C 10.097656 23.964844 9.996094 23.820312 9.820312 23.726562 L 11.375 18.933594 C 11.394531 18.933594 11.226562 18.9375 11.433594 18.9375 C 11.636719 18.9375 12.140625 18.542969 12.140625 18.230469 C 12.140625 17.917969 12.027344 17.789062 11.851562 17.660156 L 12.121094 16.339844 C 12.476562 16.476562 12.777344 16.402344 13.03125 16.117188 C 13.28125 15.832031 13.316406 15.523438 13.136719 15.1875 L 15.808594 13.085938 C 15.816406 13.09375 15.824219 13.097656 15.832031 13.105469 L 14.644531 15.199219 C 14.585938 15.183594 14.527344 15.171875 14.46875 15.171875 C 14.195312 15.171875 14.011719 15.300781 13.914062 15.554688 C 13.820312 15.808594 13.871094 16.023438 14.074219 16.207031 L 13.066406 19.144531 C 13.011719 19.128906 13.085938 19.117188 12.890625 19.117188 C 12.699219 19.117188 12.300781 19.382812 12.300781 19.710938 C 12.300781 20.101562 12.496094 20.300781 12.890625 20.300781 C 13.21875 20.300781 13.480469 19.960938 13.480469 19.710938 C 13.480469 19.457031 13.40625 19.375 13.285156 19.269531 L 14.289062 16.328125 L 14.320312 16.335938 L 14.910156 18.019531 C 14.6875 18.070312 14.578125 18.210938 14.582031 18.441406 C 14.582031 18.664062 14.777344 18.878906 15.019531 18.878906 C 15.257812 18.878906 15.453125 18.660156 15.453125 18.441406 C 15.453125 18.226562 15.332031 18.089844 15.15625 18.03125 L 14.566406 16.347656 C 14.890625 16.289062 15.050781 16.097656 15.058594 15.773438 L 17.753906 15.234375 C 17.824219 15.363281 17.933594 15.441406 18.082031 15.460938 C 18.230469 15.480469 18.355469 15.4375 18.457031 15.328125 C 18.558594 15.21875 18.597656 15.089844 18.566406 14.945312 C 18.539062 14.796875 18.453125 14.695312 18.320312 14.632812 C 18.183594 14.570312 18.050781 14.578125 17.921875 14.652344 C 17.792969 14.730469 17.71875 14.839844 17.707031 14.988281 L 15.007812 15.53125 C 14.972656 15.449219 14.921875 15.378906 14.855469 15.320312 L 16.042969 13.226562 C 16.246094 13.300781 16.4375 13.285156 16.625 13.183594 C 16.8125 13.082031 16.929688 12.925781 16.980469 12.71875 C 17.03125 12.511719 16.992188 12.324219 16.875 12.148438 C 16.753906 11.972656 16.585938 11.871094 16.375 11.84375 L 16.285156 9.769531 C 16.402344 9.746094 16.511719 9.691406 16.601562 9.609375 L 18.679688 11.277344 C 18.554688 11.503906 18.550781 11.730469 18.671875 11.957031 C 18.789062 12.1875 18.980469 12.3125 19.234375 12.335938 C 19.492188 12.363281 19.699219 12.273438 19.863281 12.074219 C 20.023438 11.875 20.066406 11.652344 19.988281 11.40625 C 19.910156 11.160156 19.746094 11.003906 19.496094 10.933594 C 19.25 10.867188 19.027344 10.914062 18.832031 11.085938 L 16.761719 9.417969 C 16.863281 9.226562 16.878906 9.03125 16.804688 8.824219 C 16.730469 8.621094 16.59375 8.480469 16.390625 8.402344 C 16.1875 8.324219 15.988281 8.335938 15.796875 8.4375 C 15.605469 8.539062 15.484375 8.695312 15.4375 8.90625 L 13.074219 8.773438 C 13.066406 8.609375 13.019531 8.457031 12.9375 8.316406 L 14.011719 7.515625 C 14.191406 7.683594 14.402344 7.738281 14.640625 7.675781 C 14.878906 7.613281 15.035156 7.464844 15.113281 7.234375 L 18.164062 7.65625 C 18.183594 7.835938 18.273438 7.972656 18.433594 8.058594 C 18.59375 8.148438 18.757812 8.148438 18.921875 8.066406 C 19.082031 7.984375 19.175781 7.851562 19.203125 7.671875 C 19.226562 7.492188 19.171875 7.339844 19.035156 7.214844 C 18.902344 7.09375 18.746094 7.050781 18.566406 7.09375 C 18.386719 7.132812 18.265625 7.242188 18.199219 7.410156 L 15.148438 6.988281 C 15.140625 6.894531 15.121094 6.808594 15.078125 6.722656 L 16.574219 5.605469 C 16.714844 5.722656 16.871094 5.753906 17.046875 5.707031 C 17.222656 5.65625 17.339844 5.542969 17.398438 5.371094 C 17.457031 5.199219 17.433594 5.039062 17.324219 4.890625 C 17.214844 4.746094 17.066406 4.675781 16.886719 4.683594 C 16.703125 4.691406 16.5625 4.769531 16.464844 4.925781 C 16.367188 5.078125 16.355469 5.238281 16.425781 5.410156 L 14.929688 6.523438 C 14.609375 6.226562 14.296875 6.234375 13.988281 6.542969 L 12.289062 5.386719 C 12.351562 5.21875 12.332031 5.054688 12.230469 4.90625 C 12.125 4.757812 11.980469 4.679688 11.800781 4.679688 Z M 21.304688 9.925781 C 21.878906 19.53125 10.738281 17.699219 10.550781 29.023438 C 12.039062 26.632812 13.625 25.679688 15.308594 26.164062 C 17.722656 27.769531 19.238281 27.789062 19.851562 26.21875 C 19.757812 25.589844 19.914062 25.15625 20.324219 24.917969 C 21.0625 24.863281 21.339844 24.5 21.160156 23.828125 C 21.785156 23.980469 22.132812 23.820312 22.199219 23.34375 C 21.957031 22.46875 22.410156 22.015625 23.5625 21.984375 C 24.382812 21.917969 24.757812 21.617188 24.683594 21.089844 C 24.390625 19.632812 24.191406 18.59375 24.082031 17.984375 C 23.8125 17.054688 23.960938 16.164062 24.527344 15.316406 C 26.613281 10.636719 25.464844 6.566406 21.085938 3.101562 C 15.058594 -0.980469 9.53125 -0.257812 6.125 3.605469 C 7.4375 2.449219 8.957031 1.730469 10.683594 1.445312 C 12.40625 1.160156 14.078125 1.351562 15.691406 2.023438 C 17.304688 2.695312 18.617188 3.746094 19.632812 5.171875 C 20.644531 6.597656 21.203125 8.183594 21.304688 9.925781 Z M 21.304688 9.925781 " clip-rule="evenodd"/></clipPath><clipPath id="f9c368ab4c"><path d="M 13.984375 20.03125 L 19.789062 20.03125 L 19.789062 25.839844 L 13.984375 25.839844 Z M 13.984375 20.03125 " clip-rule="nonzero"/></clipPath></defs><g clip-path="url(#330bcb7b31)"><path fill="#ffffff" d="M 11.628906 17.550781 L 11.90625 16.214844 C 11.722656 16.070312 11.621094 15.878906 11.601562 15.644531 C 11.578125 15.410156 11.648438 15.207031 11.800781 15.03125 C 11.957031 14.855469 12.152344 14.761719 12.386719 14.753906 C 12.621094 14.746094 12.824219 14.824219 12.992188 14.988281 L 15.65625 12.890625 C 15.621094 12.828125 15.597656 12.761719 15.585938 12.6875 L 12.148438 12.582031 C 12.132812 12.84375 12.035156 13.074219 11.859375 13.269531 C 11.679688 13.464844 11.464844 13.582031 11.203125 13.625 L 11.515625 17.527344 C 11.554688 17.53125 11.589844 17.539062 11.628906 17.550781 M 11.875 9.871094 C 11.925781 9.878906 11.980469 9.882812 12.03125 9.882812 C 12.285156 9.882812 12.507812 9.804688 12.703125 9.640625 C 12.898438 9.476562 13.015625 9.269531 13.058594 9.019531 L 15.421875 9.15625 C 15.441406 9.320312 15.507812 9.460938 15.621094 9.578125 C 15.738281 9.691406 15.878906 9.761719 16.039062 9.78125 L 16.132812 11.855469 C 15.816406 11.925781 15.628906 12.121094 15.578125 12.445312 L 12.136719 12.335938 C 12.070312 11.910156 11.835938 11.621094 11.4375 11.460938 Z M 11.058594 9.226562 C 11.167969 9.5 11.359375 9.695312 11.632812 9.808594 C 11.464844 10.40625 11.34375 10.816406 11.171875 11.390625 C 11.121094 11.382812 11.347656 11.445312 11.015625 11.378906 C 10.222656 11.222656 9.226562 12.695312 10.488281 13.511719 C 10.351562 13.910156 10.160156 14.480469 10.007812 14.894531 C 9.964844 14.878906 9.917969 14.875 9.871094 14.875 L 9.859375 14.875 C 9.386719 13.429688 8.917969 12.027344 8.421875 10.601562 C 8.703125 10.449219 8.84375 10.214844 8.84375 9.894531 C 8.84375 9.867188 8.84375 9.835938 8.839844 9.808594 Z M 9.386719 6.59375 C 9.445312 6.734375 9.546875 6.828125 9.691406 6.878906 C 9.835938 6.929688 9.972656 6.917969 10.105469 6.847656 L 11.253906 8.144531 C 11.035156 8.382812 10.953125 8.664062 10.996094 8.984375 L 8.777344 9.570312 C 8.703125 9.398438 8.578125 9.265625 8.410156 9.179688 C 8.242188 9.089844 8.0625 9.066406 7.878906 9.105469 C 7.691406 9.144531 7.539062 9.238281 7.417969 9.386719 C 7.296875 9.535156 7.238281 9.703125 7.238281 9.894531 C 7.238281 9.921875 7.238281 9.949219 7.242188 9.976562 L 5.789062 10.363281 C 5.769531 10.320312 5.742188 10.285156 5.710938 10.25 L 7.832031 7.261719 C 7.867188 7.269531 7.898438 7.273438 7.933594 7.273438 C 8.027344 7.273438 8.109375 7.242188 8.175781 7.179688 C 8.246094 7.121094 8.289062 7.042969 8.296875 6.949219 Z M 11.800781 4.679688 C 11.714844 4.679688 11.632812 4.703125 11.554688 4.742188 C 11.480469 4.78125 11.417969 4.835938 11.367188 4.910156 C 11.320312 4.980469 11.289062 5.058594 11.28125 5.144531 C 11.269531 5.230469 11.28125 5.3125 11.3125 5.390625 C 11.34375 5.472656 11.390625 5.539062 11.457031 5.597656 C 11.519531 5.652344 11.59375 5.691406 11.679688 5.710938 C 11.761719 5.734375 11.84375 5.730469 11.929688 5.710938 C 12.011719 5.6875 12.085938 5.648438 12.148438 5.59375 L 13.847656 6.75 C 13.765625 6.941406 13.769531 7.132812 13.863281 7.320312 L 12.789062 8.121094 C 12.613281 7.933594 12.398438 7.828125 12.140625 7.800781 C 11.882812 7.773438 11.652344 7.835938 11.4375 7.980469 L 10.292969 6.6875 C 10.363281 6.585938 10.394531 6.476562 10.386719 6.359375 C 10.378906 6.238281 10.335938 6.132812 10.257812 6.042969 C 10.175781 5.949219 10.078125 5.894531 9.960938 5.875 C 9.839844 5.851562 9.726562 5.867188 9.621094 5.925781 L 8.28125 4.40625 C 8.289062 4.378906 8.292969 4.347656 8.292969 4.316406 C 8.292969 4.273438 8.285156 4.234375 8.273438 4.195312 L 9.328125 3.769531 C 9.472656 3.976562 9.667969 4.039062 9.910156 3.960938 C 10.152344 3.882812 10.273438 3.71875 10.273438 3.464844 C 10.273438 3.441406 10.269531 3.414062 10.269531 3.390625 L 11.292969 2.972656 C 11.371094 3.0625 11.472656 3.105469 11.59375 3.097656 C 11.710938 3.089844 11.804688 3.035156 11.875 2.9375 L 13.394531 3.328125 C 13.394531 3.335938 13.394531 3.34375 13.394531 3.347656 C 13.394531 3.441406 13.417969 3.53125 13.460938 3.613281 C 13.503906 3.699219 13.566406 3.765625 13.644531 3.820312 C 13.722656 3.871094 13.804688 3.90625 13.898438 3.917969 C 13.992188 3.925781 14.085938 3.914062 14.171875 3.882812 C 14.261719 3.847656 14.335938 3.796875 14.398438 3.726562 C 14.457031 3.652344 14.5 3.574219 14.523438 3.480469 C 14.542969 3.390625 14.542969 3.296875 14.519531 3.207031 C 14.496094 3.117188 14.453125 3.035156 14.390625 2.964844 C 14.328125 2.894531 14.253906 2.84375 14.164062 2.8125 C 14.074219 2.78125 13.984375 2.769531 13.890625 2.78125 C 13.796875 2.792969 13.714844 2.828125 13.636719 2.882812 C 13.558594 2.9375 13.5 3.007812 13.457031 3.089844 L 11.933594 2.695312 C 11.925781 2.597656 11.886719 2.515625 11.8125 2.453125 C 11.738281 2.386719 11.652344 2.355469 11.550781 2.359375 C 11.453125 2.367188 11.371094 2.402344 11.300781 2.476562 C 11.234375 2.546875 11.199219 2.632812 11.199219 2.730469 L 11.199219 2.746094 L 10.175781 3.160156 C 10.027344 2.953125 9.832031 2.890625 9.589844 2.96875 C 9.347656 3.046875 9.226562 3.210938 9.226562 3.464844 C 9.226562 3.492188 9.230469 3.515625 9.234375 3.539062 L 8.109375 3.992188 C 7.925781 3.886719 7.765625 3.917969 7.632812 4.085938 C 7.503906 4.25 7.511719 4.410156 7.65625 4.566406 C 7.800781 4.71875 7.960938 4.734375 8.132812 4.613281 L 9.433594 6.085938 C 9.394531 6.144531 9.367188 6.210938 9.351562 6.28125 L 8.203125 6.65625 C 8.125 6.574219 8.03125 6.535156 7.917969 6.539062 C 7.804688 6.542969 7.714844 6.589844 7.644531 6.675781 L 6.78125 6.382812 C 6.78125 6.363281 6.78125 6.34375 6.78125 6.324219 C 6.78125 6.234375 6.761719 6.152344 6.722656 6.070312 C 6.679688 5.992188 6.621094 5.925781 6.550781 5.875 C 6.476562 5.820312 6.394531 5.789062 6.304688 5.777344 C 6.21875 5.765625 6.132812 5.773438 6.046875 5.804688 C 5.960938 5.832031 5.890625 5.878906 5.828125 5.945312 C 5.765625 6.011719 5.722656 6.085938 5.699219 6.171875 C 5.671875 6.257812 5.671875 6.347656 5.6875 6.433594 C 5.707031 6.523438 5.742188 6.601562 5.800781 6.671875 C 5.855469 6.742188 5.925781 6.792969 6.007812 6.832031 C 6.089844 6.867188 6.175781 6.882812 6.261719 6.875 C 6.351562 6.871094 6.4375 6.84375 6.511719 6.800781 C 6.589844 6.753906 6.652344 6.691406 6.699219 6.617188 L 7.5625 6.910156 C 7.5625 6.933594 7.566406 6.953125 7.570312 6.972656 L 5.027344 8.460938 C 4.964844 8.394531 4.890625 8.347656 4.804688 8.316406 C 4.71875 8.289062 4.628906 8.28125 4.539062 8.292969 C 4.449219 8.308594 4.367188 8.34375 4.296875 8.398438 C 4.222656 8.453125 4.164062 8.519531 4.125 8.601562 C 4.085938 8.683594 4.070312 8.773438 4.074219 8.863281 C 4.078125 8.953125 4.101562 9.039062 4.148438 9.117188 C 4.195312 9.195312 4.257812 9.257812 4.332031 9.308594 C 4.410156 9.355469 4.496094 9.382812 4.585938 9.390625 C 4.675781 9.394531 4.765625 9.382812 4.847656 9.34375 C 4.929688 9.308594 5 9.253906 5.058594 9.183594 C 5.113281 9.109375 5.152344 9.03125 5.167969 8.941406 C 5.183594 8.851562 5.179688 8.761719 5.152344 8.675781 L 7.503906 7.300781 L 5.511719 10.109375 C 5.359375 10.046875 5.207031 10.050781 5.058594 10.125 C 4.910156 10.199219 4.8125 10.316406 4.769531 10.476562 C 4.726562 10.636719 4.75 10.789062 4.84375 10.925781 C 4.9375 11.066406 5.066406 11.144531 5.230469 11.167969 C 5.394531 11.1875 5.542969 11.144531 5.667969 11.035156 C 5.792969 10.925781 5.855469 10.785156 5.855469 10.621094 C 5.855469 10.613281 5.855469 10.605469 5.855469 10.601562 L 7.308594 10.21875 C 7.398438 10.421875 7.546875 10.566406 7.757812 10.644531 L 7.148438 13.511719 C 7.007812 13.511719 6.882812 13.558594 6.777344 13.652344 L 5.902344 13.015625 C 5.941406 12.929688 5.957031 12.839844 5.949219 12.742188 C 5.941406 12.648438 5.914062 12.5625 5.863281 12.480469 C 5.8125 12.402344 5.746094 12.339844 5.664062 12.289062 C 5.582031 12.242188 5.496094 12.21875 5.402344 12.214844 C 5.304688 12.210938 5.214844 12.230469 5.128906 12.273438 C 5.046875 12.3125 4.976562 12.371094 4.917969 12.449219 C 4.863281 12.523438 4.828125 12.609375 4.816406 12.703125 C 4.800781 12.796875 4.808594 12.886719 4.84375 12.976562 C 4.875 13.066406 4.925781 13.144531 4.996094 13.207031 C 5.0625 13.269531 5.144531 13.316406 5.238281 13.339844 C 5.328125 13.363281 5.421875 13.363281 5.511719 13.339844 C 5.605469 13.320312 5.6875 13.277344 5.757812 13.214844 L 6.628906 13.851562 C 6.570312 13.988281 6.5625 14.128906 6.613281 14.269531 L 4.4375 15.601562 C 4.371094 15.53125 4.292969 15.484375 4.203125 15.453125 C 4.113281 15.425781 4.023438 15.417969 3.929688 15.433594 C 3.835938 15.449219 3.753906 15.488281 3.675781 15.542969 C 3.601562 15.601562 3.546875 15.675781 3.507812 15.761719 C 3.46875 15.847656 3.449219 15.9375 3.457031 16.03125 C 3.460938 16.125 3.492188 16.214844 3.539062 16.292969 C 3.589844 16.375 3.65625 16.4375 3.734375 16.488281 C 3.816406 16.535156 3.90625 16.5625 4 16.566406 C 4.09375 16.570312 4.183594 16.554688 4.269531 16.511719 C 4.355469 16.472656 4.425781 16.414062 4.484375 16.339844 C 4.539062 16.261719 4.574219 16.179688 4.589844 16.085938 C 4.605469 15.992188 4.597656 15.898438 4.566406 15.8125 L 6.742188 14.480469 C 6.855469 14.597656 6.992188 14.65625 7.152344 14.652344 C 7.21875 14.652344 7.285156 14.644531 7.347656 14.621094 L 7.769531 15.375 C 7.699219 15.4375 7.648438 15.511719 7.613281 15.601562 C 7.582031 15.6875 7.570312 15.777344 7.585938 15.871094 C 7.597656 15.964844 7.628906 16.050781 7.683594 16.125 C 7.738281 16.203125 7.808594 16.261719 7.890625 16.304688 C 7.976562 16.34375 8.066406 16.363281 8.160156 16.363281 C 8.253906 16.359375 8.339844 16.335938 8.421875 16.289062 C 8.503906 16.246094 8.570312 16.183594 8.621094 16.105469 C 8.671875 16.027344 8.703125 15.9375 8.710938 15.847656 C 8.71875 15.753906 8.703125 15.664062 8.667969 15.574219 C 8.632812 15.488281 8.578125 15.417969 8.503906 15.359375 C 8.429688 15.296875 8.347656 15.257812 8.257812 15.242188 C 8.164062 15.222656 8.074219 15.226562 7.984375 15.253906 L 7.554688 14.488281 C 7.621094 14.421875 7.667969 14.34375 7.695312 14.253906 C 7.726562 14.164062 7.730469 14.074219 7.714844 13.980469 C 7.699219 13.890625 7.660156 13.808594 7.601562 13.734375 C 7.546875 13.660156 7.472656 13.601562 7.390625 13.5625 L 8 10.699219 C 8.015625 10.699219 8.027344 10.699219 8.042969 10.699219 C 8.09375 10.699219 8.144531 10.695312 8.191406 10.683594 L 8.742188 12.246094 L 9.625 14.949219 C 9.484375 15.046875 9.417969 15.183594 9.433594 15.355469 C 9.453125 15.53125 9.539062 15.652344 9.699219 15.71875 L 9.144531 17.195312 C 8.964844 17.164062 8.800781 17.195312 8.644531 17.289062 C 8.492188 17.386719 8.386719 17.519531 8.335938 17.695312 L 7.285156 17.582031 C 7.265625 17.472656 7.210938 17.382812 7.125 17.3125 C 7.039062 17.246094 6.941406 17.214844 6.828125 17.21875 C 6.71875 17.222656 6.625 17.265625 6.542969 17.34375 C 6.464844 17.417969 6.421875 17.511719 6.410156 17.625 C 6.402344 17.734375 6.429688 17.832031 6.496094 17.921875 C 6.5625 18.011719 6.652344 18.066406 6.757812 18.089844 L 6.996094 21.289062 C 6.90625 21.316406 6.824219 21.363281 6.757812 21.429688 C 6.691406 21.496094 6.644531 21.574219 6.613281 21.664062 C 6.585938 21.753906 6.582031 21.847656 6.597656 21.941406 C 6.613281 22.035156 6.652344 22.117188 6.710938 22.191406 C 6.769531 22.265625 6.84375 22.324219 6.929688 22.359375 C 7.015625 22.398438 7.105469 22.414062 7.203125 22.40625 C 7.296875 22.398438 7.382812 22.371094 7.464844 22.320312 C 7.542969 22.269531 7.609375 22.203125 7.65625 22.121094 C 7.703125 22.039062 7.726562 21.953125 7.730469 21.859375 C 7.734375 21.761719 7.714844 21.671875 7.675781 21.585938 C 7.632812 21.503906 7.574219 21.433594 7.496094 21.375 C 7.421875 21.320312 7.335938 21.285156 7.242188 21.269531 L 7.003906 18.074219 C 7.125 18.027344 7.210938 17.945312 7.257812 17.828125 L 8.3125 17.941406 C 8.320312 18.0625 8.359375 18.175781 8.425781 18.28125 C 8.492188 18.382812 8.582031 18.464844 8.691406 18.519531 C 8.804688 18.578125 8.917969 18.601562 9.042969 18.597656 C 9.167969 18.59375 9.28125 18.558594 9.386719 18.492188 C 9.492188 18.429688 9.574219 18.339844 9.632812 18.234375 C 9.695312 18.125 9.722656 18.007812 9.722656 17.886719 C 9.722656 17.761719 9.691406 17.644531 9.628906 17.539062 C 9.566406 17.429688 9.480469 17.347656 9.375 17.285156 L 9.953125 15.75 C 10.027344 15.734375 10.097656 15.703125 10.15625 15.65625 C 10.214844 15.605469 10.261719 15.542969 10.289062 15.46875 C 10.316406 15.398438 10.324219 15.320312 10.308594 15.246094 C 10.296875 15.167969 10.265625 15.097656 10.21875 15.039062 L 10.738281 13.605469 C 10.8125 13.625 10.882812 13.636719 10.957031 13.640625 L 11.269531 17.542969 C 10.960938 17.617188 10.726562 17.917969 10.726562 18.230469 C 10.726562 18.539062 10.894531 18.757812 11.136719 18.871094 L 9.582031 23.664062 L 9.558594 23.664062 C 9.464844 23.664062 9.375 23.6875 9.292969 23.730469 C 9.210938 23.773438 9.140625 23.835938 9.085938 23.910156 C 9.035156 23.988281 9.003906 24.074219 8.992188 24.167969 C 8.980469 24.261719 8.992188 24.351562 9.027344 24.4375 C 9.058594 24.527344 9.109375 24.601562 9.179688 24.664062 C 9.253906 24.726562 9.332031 24.765625 9.425781 24.789062 C 9.515625 24.8125 9.605469 24.8125 9.699219 24.789062 C 9.789062 24.765625 9.867188 24.722656 9.9375 24.660156 C 10.007812 24.597656 10.058594 24.523438 10.09375 24.433594 C 10.125 24.347656 10.136719 24.253906 10.125 24.164062 C 10.113281 24.070312 10.078125 23.984375 10.027344 23.90625 C 9.972656 23.832031 9.902344 23.769531 9.820312 23.726562 L 11.375 18.933594 C 11.394531 18.933594 11.226562 18.9375 11.433594 18.9375 C 11.636719 18.9375 12.140625 18.542969 12.140625 18.230469 C 12.140625 17.917969 12.027344 17.789062 11.851562 17.660156 L 12.121094 16.339844 C 12.28125 16.398438 12.441406 16.410156 12.609375 16.371094 C 12.777344 16.328125 12.917969 16.246094 13.03125 16.117188 C 13.144531 15.988281 13.210938 15.839844 13.230469 15.667969 C 13.25 15.5 13.21875 15.335938 13.136719 15.1875 L 15.808594 13.085938 C 15.816406 13.09375 15.824219 13.097656 15.832031 13.105469 L 14.644531 15.199219 C 14.585938 15.183594 14.527344 15.171875 14.46875 15.171875 C 14.195312 15.171875 14.011719 15.300781 13.914062 15.554688 C 13.820312 15.808594 13.871094 16.023438 14.074219 16.207031 L 13.066406 19.144531 C 13.011719 19.128906 13.085938 19.117188 12.890625 19.117188 C 12.699219 19.117188 12.300781 19.382812 12.300781 19.710938 C 12.300781 19.871094 12.359375 20.011719 12.472656 20.128906 C 12.589844 20.242188 12.726562 20.300781 12.890625 20.300781 C 13.21875 20.300781 13.480469 19.960938 13.480469 19.710938 C 13.480469 19.457031 13.40625 19.375 13.285156 19.269531 L 14.289062 16.328125 L 14.320312 16.335938 L 14.910156 18.019531 C 14.6875 18.070312 14.578125 18.210938 14.582031 18.441406 C 14.582031 18.664062 14.777344 18.878906 15.019531 18.878906 C 15.257812 18.878906 15.453125 18.660156 15.453125 18.441406 C 15.453125 18.226562 15.332031 18.089844 15.15625 18.03125 L 14.566406 16.347656 C 14.707031 16.320312 14.824219 16.253906 14.914062 16.148438 C 15.007812 16.039062 15.054688 15.914062 15.058594 15.773438 L 17.753906 15.234375 C 17.789062 15.292969 17.832031 15.347656 17.890625 15.386719 C 17.949219 15.425781 18.011719 15.453125 18.082031 15.460938 C 18.152344 15.46875 18.21875 15.464844 18.285156 15.441406 C 18.351562 15.417969 18.410156 15.378906 18.457031 15.328125 C 18.503906 15.277344 18.539062 15.214844 18.558594 15.148438 C 18.578125 15.082031 18.582031 15.011719 18.566406 14.945312 C 18.554688 14.875 18.523438 14.8125 18.480469 14.757812 C 18.4375 14.703125 18.382812 14.660156 18.320312 14.632812 C 18.253906 14.601562 18.1875 14.589844 18.117188 14.59375 C 18.046875 14.597656 17.980469 14.617188 17.921875 14.652344 C 17.859375 14.6875 17.8125 14.738281 17.773438 14.796875 C 17.734375 14.855469 17.714844 14.917969 17.707031 14.988281 L 15.007812 15.53125 C 14.972656 15.449219 14.921875 15.378906 14.855469 15.320312 L 16.042969 13.226562 C 16.140625 13.261719 16.238281 13.273438 16.339844 13.265625 C 16.441406 13.257812 16.535156 13.230469 16.625 13.183594 C 16.714844 13.132812 16.789062 13.070312 16.851562 12.988281 C 16.914062 12.910156 16.957031 12.820312 16.980469 12.71875 C 17.003906 12.621094 17.007812 12.523438 16.988281 12.421875 C 16.96875 12.324219 16.929688 12.230469 16.875 12.148438 C 16.816406 12.0625 16.742188 11.996094 16.65625 11.941406 C 16.570312 11.890625 16.476562 11.855469 16.375 11.84375 L 16.285156 9.769531 C 16.402344 9.746094 16.511719 9.691406 16.601562 9.609375 L 18.679688 11.277344 C 18.621094 11.382812 18.589844 11.496094 18.589844 11.617188 C 18.585938 11.738281 18.613281 11.851562 18.671875 11.957031 C 18.726562 12.066406 18.804688 12.152344 18.90625 12.21875 C 19.003906 12.285156 19.117188 12.324219 19.234375 12.335938 C 19.355469 12.347656 19.472656 12.332031 19.582031 12.285156 C 19.695312 12.238281 19.785156 12.167969 19.863281 12.074219 C 19.9375 11.980469 19.988281 11.875 20.007812 11.753906 C 20.03125 11.636719 20.023438 11.519531 19.988281 11.40625 C 19.949219 11.289062 19.886719 11.191406 19.800781 11.109375 C 19.714844 11.023438 19.613281 10.964844 19.496094 10.933594 C 19.378906 10.902344 19.261719 10.898438 19.144531 10.925781 C 19.027344 10.953125 18.925781 11.007812 18.832031 11.085938 L 16.761719 9.417969 C 16.808594 9.328125 16.839844 9.230469 16.847656 9.125 C 16.855469 9.023438 16.839844 8.921875 16.804688 8.824219 C 16.769531 8.730469 16.714844 8.644531 16.644531 8.570312 C 16.570312 8.496094 16.488281 8.441406 16.390625 8.402344 C 16.292969 8.367188 16.195312 8.351562 16.089844 8.355469 C 15.988281 8.363281 15.890625 8.390625 15.796875 8.4375 C 15.707031 8.488281 15.628906 8.550781 15.566406 8.632812 C 15.503906 8.714844 15.460938 8.808594 15.4375 8.90625 L 13.074219 8.773438 C 13.066406 8.609375 13.019531 8.457031 12.9375 8.316406 L 14.011719 7.515625 C 14.09375 7.59375 14.191406 7.648438 14.304688 7.675781 C 14.417969 7.703125 14.527344 7.703125 14.640625 7.675781 C 14.75 7.648438 14.847656 7.59375 14.933594 7.515625 C 15.015625 7.4375 15.078125 7.339844 15.113281 7.234375 L 18.164062 7.65625 C 18.175781 7.742188 18.203125 7.820312 18.25 7.890625 C 18.296875 7.960938 18.359375 8.019531 18.433594 8.058594 C 18.507812 8.101562 18.589844 8.121094 18.675781 8.125 C 18.761719 8.125 18.84375 8.105469 18.921875 8.066406 C 18.996094 8.027344 19.058594 7.976562 19.109375 7.90625 C 19.160156 7.835938 19.191406 7.757812 19.203125 7.671875 C 19.214844 7.585938 19.203125 7.503906 19.175781 7.421875 C 19.144531 7.34375 19.101562 7.273438 19.035156 7.214844 C 18.972656 7.15625 18.898438 7.117188 18.816406 7.097656 C 18.734375 7.074219 18.648438 7.074219 18.566406 7.09375 C 18.484375 7.113281 18.410156 7.148438 18.34375 7.207031 C 18.277344 7.261719 18.230469 7.332031 18.199219 7.410156 L 15.148438 6.988281 C 15.140625 6.894531 15.121094 6.808594 15.078125 6.722656 L 16.574219 5.605469 C 16.640625 5.660156 16.714844 5.695312 16.800781 5.714844 C 16.882812 5.730469 16.964844 5.730469 17.046875 5.707031 C 17.132812 5.683594 17.203125 5.640625 17.265625 5.582031 C 17.328125 5.523438 17.371094 5.453125 17.398438 5.371094 C 17.425781 5.289062 17.433594 5.207031 17.421875 5.121094 C 17.40625 5.039062 17.375 4.960938 17.324219 4.890625 C 17.273438 4.824219 17.207031 4.769531 17.128906 4.734375 C 17.054688 4.695312 16.972656 4.679688 16.886719 4.683594 C 16.800781 4.6875 16.71875 4.710938 16.644531 4.753906 C 16.570312 4.792969 16.511719 4.851562 16.464844 4.925781 C 16.417969 4.996094 16.394531 5.078125 16.386719 5.160156 C 16.378906 5.246094 16.390625 5.328125 16.425781 5.410156 L 14.929688 6.523438 C 14.796875 6.402344 14.636719 6.339844 14.453125 6.34375 C 14.273438 6.347656 14.117188 6.414062 13.988281 6.542969 L 12.289062 5.386719 C 12.320312 5.308594 12.328125 5.226562 12.320312 5.140625 C 12.308594 5.054688 12.277344 4.976562 12.230469 4.90625 C 12.179688 4.835938 12.117188 4.78125 12.042969 4.742188 C 11.964844 4.699219 11.886719 4.679688 11.800781 4.679688 Z M 21.304688 9.925781 C 21.878906 19.53125 10.738281 17.699219 10.550781 29.023438 C 12.039062 26.632812 13.625 25.679688 15.308594 26.164062 C 17.722656 27.769531 19.238281 27.789062 19.851562 26.21875 C 19.757812 25.589844 19.914062 25.15625 20.324219 24.917969 C 21.0625 24.863281 21.339844 24.5 21.160156 23.828125 C 21.785156 23.980469 22.132812 23.820312 22.199219 23.34375 C 21.957031 22.46875 22.410156 22.015625 23.5625 21.984375 C 24.382812 21.917969 24.757812 21.617188 24.683594 21.089844 C 24.390625 19.632812 24.191406 18.59375 24.082031 17.984375 C 23.8125 17.054688 23.960938 16.164062 24.527344 15.316406 C 26.613281 10.636719 25.464844 6.566406 21.085938 3.101562 C 15.058594 -0.980469 9.53125 -0.257812 6.125 3.605469 C 6.769531 3.039062 7.476562 2.570312 8.253906 2.203125 C 9.027344 1.835938 9.835938 1.582031 10.683594 1.445312 C 11.527344 1.304688 12.375 1.285156 13.226562 1.382812 C 14.078125 1.480469 14.898438 1.695312 15.691406 2.023438 C 16.480469 2.355469 17.210938 2.785156 17.882812 3.320312 C 18.550781 3.855469 19.136719 4.472656 19.632812 5.171875 C 20.128906 5.871094 20.519531 6.625 20.804688 7.429688 C 21.085938 8.238281 21.253906 9.070312 21.304688 9.925781 Z M 21.304688 9.925781 " fill-opacity="1" fill-rule="evenodd"/></g><g clip-path="url(#d9fc02c71c)"><g clip-path="url(#da088c4330)"><path fill="#ffffff" d="M 3.453125 -0.980469 L 26.617188 -0.980469 L 26.617188 29.023438 L 3.453125 29.023438 Z M 3.453125 -0.980469 " fill-opacity="1" fill-rule="nonzero"/></g></g><g clip-path="url(#f9c368ab4c)"><path fill="#ffffff" d="M 17.027344 20.03125 C 16.730469 22.539062 16.492188 22.78125 13.984375 23.078125 C 13.988281 23.078125 13.996094 23.078125 14 23.078125 C 16.492188 23.375 16.734375 23.621094 17.027344 26.121094 C 17.324219 23.613281 17.566406 23.375 20.074219 23.078125 C 17.566406 22.78125 17.324219 22.539062 17.027344 20.03125 Z M 17.027344 20.03125 " fill-opacity="1" fill-rule="nonzero"/></g></svg>